<svg xmlns="http://www.w3.org/2000/svg" xml:space="preserve" width="609.138" height="300" viewBox="0 0 609.138 300"><path d="M0 0c-2.102 0-3.793 1.467-3.793 4.495S-2.102 8.989 0 8.989c.846 0 1.627-.192 2.076-.469l-.582-1.357c-.264.179-.74.348-1.269.348-1.229 0-2.101-1.033-2.101-3.004 0-1.97.872-2.992 2.101-2.992.529 0 1.005.156 1.269.336L2.076.47C1.627.193.874 0 0 0" style="fill:#5c2b0d;fill-opacity:1;fill-rule:nonzero;stroke:none" transform="matrix(4.94934 0 0 -4.94934 23.096 185.225)"/><path d="M0 0v3.714h-2.935V0h-1.863v8.7h1.863V5.107H0V8.7h1.863V0Z" style="fill:#5c2b0d;fill-opacity:1;fill-rule:nonzero;stroke:none" transform="matrix(4.94934 0 0 -4.94934 63.724 184.51)"/><path d="M0 0v8.7h5.09V7.283H1.824V5.107h2.948V3.714H1.824V1.418H5.09V0Z" style="fill:#5c2b0d;fill-opacity:1;fill-rule:nonzero;stroke:none" transform="matrix(4.94934 0 0 -4.94934 81.717 184.51)"/><path d="M0 0c-1.217 0-1.836-1.201-1.836-2.991 0-1.792.619-2.992 1.836-2.992s1.837 1.2 1.837 2.992C1.837-1.201 1.217 0 0 0m0-7.486c-2.511 0-3.701 1.96-3.701 4.495 0 2.534 1.19 4.494 3.701 4.494 2.513 0 3.702-1.96 3.702-4.494 0-2.535-1.189-4.495-3.702-4.495" style="fill:#5c2b0d;fill-opacity:1;fill-rule:nonzero;stroke:none" transform="matrix(4.94934 0 0 -4.94934 129.78 148.172)"/><path d="m0 0-3.425 5.156c-.316.48-.567 1.021-.567 1.021h-.028s.028-.589.028-1.13V0h-1.587v8.7h1.599l3.345-5.023c.304-.469.569-1.021.569-1.021h.025s-.025.613-.025 1.166V8.7h1.598V0Z" style="fill:#5c2b0d;fill-opacity:1;fill-rule:nonzero;stroke:none" transform="matrix(4.94934 0 0 -4.94934 181.711 184.51)"/><path d="M0 0c-2.671 0-4.35 1.743-4.35 4.495S-2.564 8.989.158 8.989c.979 0 1.905-.204 2.393-.469l-.582-1.321c-.37.192-.992.347-1.745.347-1.506 0-2.71-.961-2.71-3.039 0-2.079 1.125-3.075 2.354-3.075.462 0 .846.059 1.019.131v2.428H-.582v1.285H2.63V.47C2.116.217 1.137 0 0 0" style="fill:#5c2b0d;fill-opacity:1;fill-rule:nonzero;stroke:none" transform="matrix(4.94934 0 0 -4.94934 216.82 185.225)"/><path d="M0 0v1.455c1.004.226 1.665.863 1.665 2.138v7.738h1.863V3.593C3.528 1.382 2.195.252 0 0" style="fill:#5c2b0d;fill-opacity:1;fill-rule:nonzero;stroke:none" transform="matrix(4.94934 0 0 -4.94934 231.785 197.53)"/><path d="M0 0c-1.864 0-3.265.972-3.265 2.691v6.128h1.866V2.678c0-.768.621-1.224 1.399-1.224.781 0 1.401.456 1.401 1.224v6.141h1.864V2.691C3.265.972 1.865 0 0 0" style="fill:#5c2b0d;fill-opacity:1;fill-rule:nonzero;stroke:none" transform="matrix(4.94934 0 0 -4.94934 274.175 185.099)"/><path d="M0 0c-2.102 0-3.793 1.466-3.793 4.494 0 3.029 1.691 4.495 3.793 4.495.846 0 1.627-.193 2.076-.47l-.582-1.356c-.264.179-.74.348-1.269.348-1.229 0-2.101-1.033-2.101-3.004 0-1.972.872-2.993 2.101-2.993.529 0 1.005.156 1.269.336L2.076.469C1.627.193.874 0 0 0" style="fill:#5c2b0d;fill-opacity:1;fill-rule:nonzero;stroke:none" transform="matrix(4.94934 0 0 -4.94934 23.096 246.292)"/><path d="M65.467 387.398h1.863v-8.7h-1.863z" style="fill:#5c2b0d;fill-opacity:1;fill-rule:nonzero;stroke:none" transform="matrix(4.94934 0 0 -4.94934 -284.04 2119.887)"/><path d="M0 0v-7.283h-1.864V0h-2.022v1.417h5.894V0Z" style="fill:#5c2b0d;fill-opacity:1;fill-rule:nonzero;stroke:none" transform="matrix(4.94934 0 0 -4.94934 73.722 209.534)"/><path d="M0 0v-3.413h-1.863V0l-2.843 5.287h2.01l1.744-3.58h.027l1.758 3.58h2.009z" style="fill:#5c2b0d;fill-opacity:1;fill-rule:nonzero;stroke:none" transform="matrix(4.94934 0 0 -4.94934 108.25 228.689)"/><path d="M0 0v-21.437h1.025c1.142 0 2.073.853 2.073 1.905V0Z" style="fill:#5c2b0d;fill-opacity:1;fill-rule:nonzero;stroke:none" transform="matrix(4.94934 0 0 -4.94934 298.727 4.84)"/><path d="M0 0h-4.311v-2.048H0v-5.601h1.026c1.14 0 2.073.853 2.073 1.904V4.366H0Z" style="fill:#5c2b0d;fill-opacity:1;fill-rule:nonzero;stroke:none" transform="matrix(4.94934 0 0 -4.94934 78.618 26.447)"/><path d="M0 0h-3.094v-5.612c.004-.34-.05-1.847-.681-3.103-.655-1.284-1.753-2.565-4.651-3.928l1.329-1.777c2.483.845 4.483 2.368 5.55 3.821 1.063-1.453 3.066-2.976 5.55-3.821l1.326 1.777C2.433-11.28 1.333-9.999.68-8.715.048-7.459-.002-5.952 0-5.612Z" style="fill:#5c2b0d;fill-opacity:1;fill-rule:nonzero;stroke:none" transform="matrix(4.94934 0 0 -4.94934 264.212 5.613)"/><path d="M0 0h8.788v-7.143h1.076c1.2 0 2.177.853 2.177 1.904V0h8.786v2.047H0Z" style="fill:#5c2b0d;fill-opacity:1;fill-rule:nonzero;stroke:none" transform="matrix(4.94934 0 0 -4.94934 111.52 76.576)"/><path d="M0 0h5.923v2.047H-9.171V0h5.918v-.145c-.01-.224-.059-1.63-.953-2.756-.898-1.12-2.583-2.425-6.238-3.065l1.06-2.179c3.851.734 6.368 2.16 7.758 3.787 1.391-1.627 3.909-3.053 7.76-3.787l1.057 2.179C3.54-5.326 1.853-4.021.955-2.901.059-1.772.011-.361 0-.143Z" style="fill:#5c2b0d;fill-opacity:1;fill-rule:nonzero;stroke:none" transform="matrix(4.94934 0 0 -4.94934 170.856 17.438)"/><path d="M0 0c-1.506 0-2.727 1.242-2.727 2.775 0 1.535 1.221 2.778 2.727 2.778 1.506 0 2.726-1.243 2.726-2.778C2.726 1.242 1.506 0 0 0m0 7.602c-3.303 0-5.98-2.161-5.98-4.827C-5.98.111-3.303-2.05 0-2.05c3.302 0 5.979 2.161 5.979 4.825 0 2.666-2.677 4.827-5.979 4.827" style="fill:#5c2b0d;fill-opacity:1;fill-rule:nonzero;stroke:none" transform="matrix(4.94934 0 0 -4.94934 62.301 103.681)"/><path d="m0 0 1.271 1.974C-1.72 3.234-2.848 4.438-3.464 5.7c-.559 1.175-.624 2.309-.631 2.966H.283v2.048h-4.378v1.717h-3.094v-1.717h-4.382V8.666h4.379c-.007-.657-.072-1.791-.631-2.966-.616-1.262-1.743-2.466-4.734-3.726L-11.289 0c2.89 1.089 4.726 2.618 5.645 4.137C-4.725 2.618-2.886 1.089 0 0" style="fill:#5c2b0d;fill-opacity:1;fill-rule:nonzero;stroke:none" transform="matrix(4.94934 0 0 -4.94934 62.149 61.525)"/><path d="M0 0h15.855c1.403 0 2.808.066 4.208.201l-.001 14.155a30.038 30.038 0 0 0-5.949-.254c-.032.57-.049 1.14-.049 1.711.007 7.64 2.892 15.212 8.715 21.04a29.574 29.574 0 0 0 12.825 7.559v14.43a43.644 43.644 0 0 1-22.762-12.051A43.698 43.698 0 0 1 0 16.084Zm43.55 59.633a44.05 44.05 0 0 1-4.086-.229V45.246c1.451.212 2.914.323 4.378.323.565 0 1.127-.015 1.69-.048.033-.569.048-1.139.048-1.709-.008-7.641-2.891-15.215-8.714-21.044v.002a29.548 29.548 0 0 0-12.94-7.592V.754A43.659 43.659 0 0 1 46.804 12.83l.002.001c8.539 8.538 12.821 19.792 12.815 30.981v15.821z" style="fill:#7fbe26;fill-opacity:1;fill-rule:nonzero;stroke:none" transform="matrix(4.94934 0 0 -4.94934 314.053 300)"/></svg>