<svg xmlns="http://www.w3.org/2000/svg" xml:space="preserve" width="1075.4454" height="300" viewBox="0 0 1075.4454 300.00001"><path d="M2365.827-225.604v3.322h-20.3v5.44h47.86v-5.44h-20.25v-3.322c2.499-.766 4.57-2.196 6.224-4.287 1.652-2.097 2.483-4.515 2.483-7.256 0-3.302-1.21-6.13-3.632-8.49-2.413-2.359-5.335-3.536-8.761-3.536-3.384 0-6.286 1.177-8.7 3.536-2.42 2.36-3.627 5.188-3.627 8.49 0 2.741.822 5.159 2.472 7.256 1.66 2.091 3.732 3.52 6.23 4.287m-.122 27.196h-14.737v5.434h37.04v-5.434h-14.745c.278-1.933 1.087-3.531 2.413-4.802 1.331-1.273 2.942-2.291 4.835-3.06a25.408 25.408 0 0 1 4.955-1.445 38.603 38.603 0 0 1 5.017-.607c.202 0 .302-.056.302-.18a.99.99 0 0 0-.119-.42l-3.139-4.293c-1.657 0-3.438.214-5.354.637a28.803 28.803 0 0 0-5.472 1.785 22.485 22.485 0 0 0-4.042 2.378c-1.21.914-2.158 1.926-2.84 3.06-.045.077-.14.122-.303.122a.513.513 0 0 1-.365-.123c-.606-1.133-1.56-2.163-2.868-3.088-1.307-.924-2.793-1.729-4.443-2.415a37.268 37.268 0 0 0-5.288-1.688c-1.831-.445-3.535-.668-5.102-.668l-3.15 4.294c-.116.198-.172.349-.147.45 0 .105.13.15.333.15 1.855.122 3.787.383 5.8.789 2.015.401 3.846 1.024 5.503 1.876 1.567.803 2.887 1.79 3.958 2.956 1.067 1.17 1.718 2.598 1.959 4.292m3.748-32.209c-1.447 0-2.778-.656-3.989-1.97-1.21-1.3-1.811-2.827-1.811-4.56 0-1.732.6-3.25 1.811-4.559 1.211-1.313 2.542-1.961 3.989-1.961 1.49 0 2.84.648 4.047 1.961 1.21 1.31 1.816 2.827 1.816 4.56 0 1.732-.605 3.258-1.816 4.558-1.207 1.315-2.557 1.971-4.047 1.971zM2422.208-236.44h20.126v-5.433h-47.865v5.432h20.666v8.344c0 .685-.167 1.236-.512 1.655-.342.427-.792.64-1.358.64h-.788v2.963h9.731v-13.602m-7.314 36.263c0 .928-.234 1.61-.698 2.053-.458.444-.955.667-1.474.667h-.846v3.322h10.332v-7.31c0-2.943.544-5.471 1.634-7.584 1.082-2.119 2.495-3.878 4.229-5.287a16.692 16.692 0 0 1 5.742-3.026 22.584 22.584 0 0 1 6.527-.964c.242 0 .357-.053.357-.154 0-.097-.056-.207-.174-.331l-3.628-4.71c-1.653 0-3.446.269-5.378.816a24.243 24.243 0 0 0-5.622 2.384 20.634 20.634 0 0 0-4.02 3.08 14.518 14.518 0 0 0-2.93 4.05c-.154.365-.31.543-.45.543-.143 0-.317-.178-.512-.543a15.008 15.008 0 0 0-3.236-4.288 22.357 22.357 0 0 0-4.446-3.203 24.986 24.986 0 0 0-5.254-2.054c-1.816-.489-3.465-.73-4.959-.73l-3.624 4.715c-.123.124-.179.23-.179.332 0 .1.116.155.362.155 2.095 0 4.19.33 6.281.995a17.986 17.986 0 0 1 5.688 2.992c1.848 1.406 3.361 3.251 4.525 5.53 1.172 2.274 1.754 5.068 1.754 8.366v.185zM2444.01-228.723c-.086.112-.102.217-.063.3.039.076.118.138.242.179a33.298 33.298 0 0 1 8.427 3.267c2.724 1.49 5.09 3.56 7.108 6.22 1.487 2.015 2.686 4.43 3.593 7.25.9 2.822 1.358 6.128 1.358 9.913v.183h-17.767v5.441h24.232c.203 0 .342-.044.426-.124.076-.08.116-.24.116-.485v-4.347c0-4.633-.652-8.727-1.964-12.27-1.303-3.545-3.01-6.584-5.102-9.125-2.502-2.941-5.323-5.238-8.462-6.89-3.143-1.652-6.189-2.74-9.126-3.26l-3.019 3.748m44.054-19.224h-6.468v49.985c0 .596-.178 1.185-.539 1.746-.365.563-.916.846-1.634.846h-1.09v3.02h9.731zM2529.88-203.833v5.87c0 .597-.179 1.186-.543 1.747-.361.563-.908.846-1.633.846h-1.087v3.02h9.79v-30.332h-6.527v12.808h-9.184c-.48-3.298-1.97-6.06-4.477-8.274-2.491-2.22-5.436-3.325-8.82-3.325-3.744 0-6.93 1.36-9.545 4.08-2.619 2.721-3.926 6.01-3.926 9.874 0 3.869 1.307 7.163 3.926 9.879 2.616 2.722 5.801 4.084 9.546 4.084 3.103 0 5.862-.966 8.283-2.903 2.413-1.932 4.004-4.386 4.773-7.374h9.424m-29.368-3.686c0-2.374.675-4.407 2.021-6.1 1.355-1.693 2.977-2.54 4.867-2.54 1.893 0 3.51.847 4.865 2.54 1.346 1.693 2.025 3.726 2.025 6.1 0 2.38-.679 4.41-2.025 6.104-1.354 1.695-2.972 2.54-4.865 2.54-1.89 0-3.512-.845-4.867-2.54-1.346-1.694-2.02-3.723-2.02-6.104m9.669-23.99h19.64v1.09c0 .64-.175 1.135-.516 1.48-.346.342-.791.516-1.361.516h-.602v3.264h9.064v-17.892c0-1.608-.37-2.828-1.122-3.655-.744-.828-1.8-1.241-3.166-1.241h-24.293c-1.33 0-2.375.413-3.147 1.241-.764.827-1.148 2.047-1.148 3.655v11.967c0 .648-.167 1.14-.508 1.478-.346.347-.796.518-1.362.518h-.606v3.32h9.127v-5.741m19.64-5.38h-19.64v-4.893c0-.44.059-.7.182-.784.119-.08.342-.118.66-.118h17.89c.319 0 .552.064.7.21.138.139.21.387.21.752v4.833zM2541.909-228.723c-.083.112-.095.217-.06.3.04.076.116.138.243.179 2.902.685 5.704 1.773 8.428 3.267 2.716 1.49 5.087 3.56 7.1 6.22 1.49 2.015 2.685 4.43 3.601 7.25.9 2.822 1.358 6.128 1.358 9.913v.183h-17.77v5.441h24.234c.207 0 .346-.044.42-.124.082-.08.122-.24.122-.485v-4.347c0-4.633-.66-8.727-1.967-12.27-1.307-3.545-3.007-6.584-5.106-9.125-2.499-2.941-5.312-5.238-8.455-6.89-3.146-1.652-6.184-2.74-9.126-3.26l-3.022 3.748m44.058-19.224h-6.471v49.985c0 .596-.18 1.185-.544 1.746-.362.563-.904.846-1.63.846h-1.09v3.02h9.735zM2610.574-222.118h-20.304v5.322h47.861v-5.322h-20.246v-4.048h13.72c.163 0 .29-.04.389-.12.103-.08.154-.26.154-.542v-11.724c0-.322-.087-.593-.27-.82-.183-.22-.454-.324-.815-.324h-26.47v-2.421a.47.47 0 0 1 .147-.363c.1-.078.238-.12.397-.12h27.56v-5.318h-30.458c-1.575 0-2.69.369-3.356 1.12-.66.742-.998 2.044-.998 3.897v2.834c0 .69-.178 1.275-.543 1.758-.37.477-.904.722-1.633.722h-.54v3.026h30.339v3.2h-29.8v5.195h14.869v4.048m4.23 16.625c.76-1.289 1.796-2.412 3.08-3.357a21.634 21.634 0 0 1 4.175-2.388 26.97 26.97 0 0 1 5.619-1.69c1.932-.36 3.623-.543 5.075-.543l3.744 4.534c.092.076.118.198.118.36 0 .16-.075.241-.242.241-1.405 0-3.042.126-4.92.394a27.835 27.835 0 0 0-5.533 1.362c-2.138.8-3.989 1.961-5.564 3.47-1.568 1.51-2.352 3.52-2.352 6.013v5.684h-9.73v-3.022h.542c.563 0 1.025-.235 1.358-.695.35-.47.513-1.04.513-1.723v-.244c0-2.417-.683-4.373-2.053-5.861-1.366-1.49-3.061-2.635-5.067-3.446a23.415 23.415 0 0 0-5.688-1.505c-2.01-.287-3.846-.427-5.499-.427-.162 0-.254-.081-.27-.24-.04-.163 0-.285.087-.361l3.756-4.534c1.614 0 3.41.188 5.41.57 1.99.388 3.91.976 5.765 1.785 1.404.648 2.716 1.426 3.895 2.356a11.378 11.378 0 0 1 2.88 3.267c.154.236.325.35.508.325.183-.012.314-.13.393-.325zM2651.61-200.14h-9.312v5.375h26.113v-5.376h-9.433c.04-2.462.404-4.617 1.087-6.466.687-1.855 1.532-3.428 2.541-4.714 1.366-1.735 2.848-3.017 4.44-3.843 1.59-.823 2.933-1.236 4.019-1.236.163 0 .246-.049.246-.152 0-.1 0-.209-.059-.33l-3.57-4.232c-1.691.205-3.833 1.22-6.433 3.05-2.6 1.835-4.462 4.081-5.59 6.743-.084.198-.208.31-.362.334-.163.02-.286-.095-.366-.334-1.048-2.662-2.871-4.908-5.471-6.744-2.596-1.83-4.784-2.844-6.557-3.05l-3.562 4.234c-.087.081-.108.18-.095.3 0 .119.108.18.27.18 1.051 0 2.367.39 3.958 1.182 1.59.78 3.073 2.026 4.446 3.712 1.04 1.334 1.91 2.935 2.592 4.807.687 1.872 1.056 4.059 1.095 6.56m16.56-22.965c3.585 0 6.642-1.282 9.176-3.84 2.541-2.556 3.81-5.63 3.81-9.213 0-3.587-1.269-6.656-3.81-9.22-2.534-2.56-5.591-3.838-9.176-3.838-3.59 0-6.65 1.279-9.193 3.837-2.537 2.565-3.806 5.634-3.806 9.221 0 3.584 1.27 6.657 3.806 9.214 2.542 2.557 5.603 3.84 9.193 3.84m0-5.385c-1.781 0-3.275-.721-4.501-2.17-1.234-1.446-1.847-3.287-1.847-5.499 0-2.217.613-4.048 1.847-5.505 1.226-1.444 2.72-2.175 4.5-2.175 1.77 0 3.275.731 4.529 2.175 1.249 1.457 1.874 3.288 1.874 5.505 0 2.212-.625 4.053-1.874 5.499-1.254 1.449-2.76 2.17-4.528 2.17m9.118 23.454v7.073c0 .596-.187 1.185-.54 1.746-.365.563-.907.846-1.633.846h-1.087v3.02h9.786v-31.176h-6.526v12.987h-10.88v5.504zM2715.6-236.456h20.433v-5.44h-47.869v5.44h20.67v5.26c0 .68-.171 1.235-.512 1.664-.342.419-.8.634-1.359.634h-.845v2.96h9.482v-10.518m-14.255 32.631h22.12v3.81c0 .646-.174 1.14-.52 1.48-.337.348-.795.519-1.354.519h-.605v3.263h9.056v-22.904c0-1.614-.37-2.835-1.11-3.657-.748-.827-1.804-1.238-3.173-1.238h-26.715c-1.37 0-2.436.411-3.2 1.238-.761.822-1.15 2.043-1.15 3.657v16.983c0 .638-.17 1.135-.511 1.474-.342.345-.777.516-1.3.516h-.61v3.32h9.072v-8.46m22.12-5.375h-22.12v-7.067c0-.448.075-.71.219-.792.13-.08.365-.12.683-.12h20.308c.326 0 .555.072.698.213.139.138.215.396.215.755v7.011zM2750.168-200.748h-9.483v5.378h26.11v-5.378h-9.491v-1.816c0-2.94.434-5.539 1.296-7.791.869-2.254 1.905-4.15 3.111-5.675 1.211-1.457 2.51-2.58 3.9-3.385 1.389-.813 2.689-1.3 3.9-1.455.162-.04.25-.107.27-.18.039-.082 0-.185-.092-.301l-3.566-4.233c-1.044.198-2.212.642-3.5 1.329a19.963 19.963 0 0 0-3.69 2.537 20.914 20.914 0 0 0-2.778 2.992 16.152 16.152 0 0 0-2.056 3.536c-.08.202-.2.31-.362.334-.163.02-.282-.091-.37-.334-.558-1.412-1.346-2.737-2.355-3.988a19.285 19.285 0 0 0-3.318-3.264 20.089 20.089 0 0 0-3.2-2.025c-1.09-.541-2.138-.92-3.147-1.117l-3.566 4.233c-.075.116-.11.22-.087.3 0 .074.103.142.27.18 1.246.117 2.573.614 3.985 1.48 1.409.866 2.7 2.046 3.865 3.536 1.249 1.529 2.29 3.412 3.112 5.651.822 2.235 1.237 4.788 1.237 7.64v1.816m6.65-27.556v-12.694c0-.28.073-.499.207-.665.147-.158.358-.243.644-.243h24.596v-5.43h-27.743c-1.447 0-2.533.392-3.263 1.174-.721.784-1.09 2.027-1.09 3.719v8.637c0 .69-.179 1.27-.54 1.758-.357.479-.907.72-1.637.72h-1.078v3.024h9.905m24.899-3.929h-6.53v34.271c0 .596-.179 1.185-.54 1.746-.365.563-.908.846-1.63.846h-1.09v3.02h9.79zM2786.303-223.924v5.262h47.559v-5.262h-47.559m14.745 22.848h-8.405V-196h14.147v.788c0 .687-.183 1.238-.547 1.66-.358.427-.827.633-1.389.633h-.242v2.36h8.885V-196h13.957v-5.076h-8.4c.446-.768.78-1.57.997-2.413.226-.85.333-1.739.333-2.662 0-2.863-.997-5.28-2.991-7.256-1.995-1.973-4.439-2.958-7.345-2.958-2.86 0-5.293.985-7.31 2.958-2.01 1.975-3.019 4.393-3.019 7.256 0 .923.115 1.812.358 2.662.246.844.57 1.645.97 2.413m9.002-24.782c3.263 0 6.03-1.14 8.28-3.443 2.258-2.294 3.383-5.054 3.383-8.277 0-3.218-1.125-5.97-3.383-8.25-2.25-2.272-5.017-3.411-8.28-3.411-3.22 0-5.96 1.139-8.219 3.41-2.25 2.282-3.383 5.033-3.383 8.251 0 3.223 1.133 5.983 3.383 8.277 2.259 2.302 4.998 3.443 8.219 3.443m0-5.434c-1.332 0-2.534-.627-3.624-1.872-1.087-1.251-1.63-2.722-1.63-4.414 0-1.69.543-3.158 1.63-4.41 1.09-1.25 2.292-1.873 3.624-1.873 1.416 0 2.646.622 3.72 1.874 1.068 1.25 1.603 2.72 1.603 4.41 0 1.691-.535 3.162-1.603 4.413-1.074 1.245-2.304 1.872-3.72 1.872m0 30.216c-1.211 0-2.17-.502-2.903-1.515-.721-1.001-1.078-2.194-1.078-3.56 0-1.372.357-2.56 1.078-3.568.734-1.009 1.692-1.51 2.903-1.51 1.25 0 2.234.501 2.96 1.51.725 1.007 1.087 2.196 1.087 3.568 0 1.366-.362 2.559-1.087 3.56-.726 1.013-1.71 1.515-2.96 1.515zM2854.84-221.974v-7.86h-6.828v7.86h-12.447v5.434h33.722v-5.434h-14.446m-14.08 18.615c0 3.218 1.074 5.94 3.231 8.156 2.154 2.213 4.785 3.32 7.888 3.32 3.136 0 5.801-1.107 7.982-3.32 2.169-2.216 3.263-4.938 3.263-8.156 0-3.23-1.094-5.946-3.263-8.164-2.18-2.215-4.846-3.321-7.982-3.321-3.103 0-5.734 1.106-7.888 3.321-2.157 2.217-3.232 4.934-3.232 8.164m13.538-28.955v-8.701c0-.282.072-.499.21-.66.14-.163.358-.24.637-.24h25.018v-5.443h-28.161c-1.49 0-2.6.394-3.326 1.176-.725.788-1.09 2.023-1.09 3.725v4.648c0 .683-.183 1.271-.543 1.756-.358.475-.904.72-1.63.72h-1.094v3.018h9.98m-7.19 28.956c0-1.737.462-3.205 1.389-4.416.927-1.209 2.053-1.816 3.383-1.816 1.37 0 2.526.613 3.473 1.843.947 1.23 1.42 2.712 1.42 4.445 0 1.73-.473 3.19-1.42 4.378-.947 1.192-2.103 1.783-3.473 1.783-1.33 0-2.456-.601-3.383-1.81-.927-1.21-1.39-2.683-1.39-4.407m25.986-21.642v27.014c0 .607-.183 1.193-.547 1.757-.366.563-.904.846-1.63.846h-1.09v3.017h9.793v-41.395h-6.526v3.87h-10.88V-225zM2361.985-275.651h-5.467l-5.117 6.868-1.009-1.253v-5.615h-4.45v17.208h4.45v-7.79l6.115 7.79h5.137l-6.697-7.97z" style="fill:#656263;fill-opacity:1;fill-rule:nonzero;stroke:none;stroke-width:3.9732" transform="matrix(1.33333 0 0 -1.33333 -2764.772 -182.538)"/><path d="M2375.465-269.167c0-2.14-.621-3.82-1.87-5.054-1.242-1.228-2.992-1.849-5.242-1.849-2.254 0-4 .62-5.25 1.849-1.25 1.234-1.87 2.914-1.87 5.054 0 2.159.625 3.847 1.882 5.075 1.253 1.228 2.995 1.84 5.238 1.84 2.266 0 4.016-.614 5.257-1.854 1.234-1.234 1.855-2.92 1.855-5.061m-5.13-3.167c.27.334.47.732.606 1.196.139.473.202 1.123.202 1.951 0 .767-.064 1.405-.21 1.927-.136.518-.326.929-.575 1.24-.246.32-.543.54-.892.676a3.08 3.08 0 0 1-1.113.192c-.408 0-.757-.052-1.075-.159-.31-.108-.606-.323-.893-.651-.25-.295-.454-.716-.605-1.244-.151-.524-.227-1.19-.227-1.98 0-.715.067-1.332.195-1.853.136-.526.326-.947.582-1.263.243-.301.54-.522.881-.664a3.12 3.12 0 0 1 1.176-.206c.373 0 .733.06 1.078.19.342.13.633.35.87.648zM2386.092-266.624h-.37c-.178.058-.465.107-.86.136a14.55 14.55 0 0 1-.982.044 9.513 9.513 0 0 1-1.572-.112 8.817 8.817 0 0 1-1.47-.398v-8.697h-4.163v12.989h4.163v-1.915c.912.791 1.711 1.311 2.394 1.573.68.26 1.304.39 1.878.39.144 0 .31-.003.493-.013.19-.008.354-.023.489-.035v-3.964z" style="fill:#656263;fill-opacity:1;fill-rule:nonzero;stroke:none;stroke-width:3.9732" transform="matrix(1.33333 0 0 -1.33333 -2764.772 -182.538)"/><path d="M2399.452-269.908h-9.522c.064-1.033.45-1.82 1.156-2.363.718-.548 1.77-.823 3.159-.823.877 0 1.73.163 2.552.483.83.328 1.479.677 1.956 1.04h.466v-3.345a14.849 14.849 0 0 0-2.662-.816 13.676 13.676 0 0 0-2.77-.262c-2.608 0-4.606.586-5.991 1.76-1.39 1.173-2.088 2.845-2.088 5.007 0 2.143.66 3.839 1.972 5.096 1.319 1.26 3.12 1.88 5.408 1.88 2.111 0 3.702-.537 4.769-1.6 1.059-1.068 1.595-2.6 1.595-4.6v-1.457m-4.14 2.43c-.04.868-.243 1.521-.649 1.956-.41.442-1.043.656-1.905.656-.799 0-1.462-.202-1.978-.617-.516-.42-.804-1.083-.866-1.995zM2408.461-274.28a29.09 29.09 0 0 0-.838-.605 5.707 5.707 0 0 0-.923-.574 5.537 5.537 0 0 0-1.273-.401 7.315 7.315 0 0 0-1.436-.134c-1.23 0-2.258.386-3.088 1.146-.823.763-1.246 1.737-1.246 2.92 0 .955.215 1.727.637 2.328.423.601 1.02 1.073 1.792 1.418.772.35 1.72.598 2.86.743 1.133.148 2.313.25 3.53.324v.068c0 .72-.285 1.213-.869 1.488-.581.272-1.443.408-2.576.408-.683 0-1.412-.12-2.184-.367-.776-.239-1.331-.43-1.669-.56h-.381v3.126c.438.117 1.152.25 2.142.41.99.159 1.975.24 2.968.24 2.36 0 4.066-.36 5.118-1.092 1.047-.737 1.571-1.866 1.571-3.428v-8.83h-4.136v1.372m0 2.032v2.7a59.394 59.394 0 0 1-1.808-.186c-.652-.088-1.14-.18-1.482-.29-.408-.13-.722-.32-.94-.568-.218-.25-.33-.58-.33-.99 0-.27.04-.488.068-.655.05-.169.163-.33.35-.485.178-.155.389-.264.628-.34.242-.071.62-.11 1.144-.11.416 0 .827.082 1.258.26.415.161.787.382 1.113.664zM2434.69-261.784h-5.377v-13.867h-4.455v13.867h-5.378v3.341h15.21zM2448.131-269.908h-9.525c.064-1.033.45-1.82 1.16-2.363.714-.548 1.761-.823 3.154-.823.88 0 1.735.163 2.557.483.823.328 1.475.677 1.956 1.04h.461v-3.345a14.798 14.798 0 0 0-2.665-.816 13.597 13.597 0 0 0-2.763-.262c-2.607 0-4.61.586-5.999 1.76-1.388 1.173-2.08 2.845-2.08 5.007 0 2.143.656 3.839 1.972 5.096 1.312 1.26 3.116 1.88 5.409 1.88 2.11 0 3.698-.537 4.76-1.6 1.064-1.068 1.603-2.6 1.603-4.6v-1.457m-4.144 2.43c-.039.868-.242 1.521-.648 1.956-.407.442-1.044.656-1.905.656-.8 0-1.459-.202-1.979-.617-.512-.42-.8-1.083-.861-1.995zM2456.054-275.994c-1.137 0-2.169.138-3.112.407-.931.272-1.75.685-2.444 1.25a5.704 5.704 0 0 0-1.595 2.124c-.381.857-.566 1.862-.566 3.01 0 1.211.198 2.253.605 3.132a6.018 6.018 0 0 0 1.696 2.188 6.91 6.91 0 0 0 2.429 1.197c.915.255 1.87.385 2.86.385.884 0 1.703-.097 2.447-.291a11.801 11.801 0 0 0 2.1-.75v-3.538h-.594c-.154.138-.354.295-.578.481-.23.18-.508.361-.842.536-.31.167-.66.31-1.04.417a4.514 4.514 0 0 1-1.315.174c-1.106 0-1.96-.357-2.55-1.063-.605-.704-.896-1.66-.896-2.867 0-1.248.302-2.196.912-2.844.613-.648 1.482-.972 2.608-.972.52 0 .993.06 1.412.18.419.123.764.258 1.043.421.259.155.493.314.695.487.202.169.385.328.551.493h.594v-3.549a11.379 11.379 0 0 0-2.06-.735 9.563 9.563 0 0 0-2.36-.273zM2474.492-275.651h-4.167v6.443c0 .52-.039 1.046-.083 1.567-.056.522-.143.906-.274 1.153a1.383 1.383 0 0 1-.675.625c-.302.127-.718.195-1.25.195-.385 0-.768-.061-1.155-.18a6.38 6.38 0 0 1-1.27-.594v-9.209h-4.166v17.984h4.166v-6.43c.742.575 1.448 1.023 2.131 1.328.683.312 1.44.467 2.27.467 1.4 0 2.499-.41 3.29-1.232.787-.814 1.183-2.035 1.183-3.664v-8.453zM2489.586-275.651h-4.167v6.443c0 .52-.042 1.046-.08 1.567-.057.522-.147.906-.279 1.153a1.367 1.367 0 0 1-.683.625c-.294.127-.706.195-1.245.195a3.95 3.95 0 0 1-1.153-.18 6.495 6.495 0 0 1-1.272-.594v-9.209h-4.167v12.989h4.167v-1.434c.74.574 1.455 1.022 2.134 1.327.683.312 1.44.467 2.274.467 1.4 0 2.495-.41 3.29-1.232.787-.814 1.18-2.035 1.18-3.664v-8.453zM2504.912-269.167c0-2.14-.62-3.82-1.87-5.054-1.242-1.228-2.988-1.849-5.242-1.849-2.25 0-4.004.62-5.25 1.849-1.245 1.234-1.866 2.914-1.866 5.054 0 2.159.625 3.847 1.882 5.075 1.25 1.228 2.995 1.84 5.234 1.84 2.262 0 4.016-.614 5.254-1.854 1.241-1.234 1.858-2.92 1.858-5.061m-5.126-3.167c.267.334.47.732.602 1.196.139.473.203 1.123.203 1.951 0 .767-.072 1.405-.207 1.927-.136.518-.33.929-.578 1.24-.242.32-.543.54-.885.676-.35.132-.722.192-1.121.192-.4 0-.757-.052-1.075-.159-.31-.108-.605-.323-.892-.651-.255-.295-.45-.716-.605-1.244-.147-.524-.227-1.19-.227-1.98 0-.715.067-1.332.195-1.853.135-.526.326-.947.578-1.263.25-.301.547-.522.888-.664a3.1 3.1 0 0 1 1.172-.206c.381 0 .737.06 1.079.19.341.13.632.35.873.648zM2510.286-275.651h-4.163v17.984h4.163zM2525.71-269.167c0-2.14-.614-3.82-1.863-5.054-1.25-1.228-2.995-1.849-5.254-1.849-2.246 0-4 .62-5.242 1.849-1.249 1.234-1.874 2.914-1.874 5.054 0 2.159.629 3.847 1.886 5.075 1.253 1.228 2.995 1.84 5.23 1.84 2.274 0 4.024-.614 5.262-1.854 1.241-1.234 1.855-2.92 1.855-5.061m-5.126-3.167c.266.334.47.732.605 1.196.136.473.207 1.123.207 1.951 0 .767-.072 1.405-.21 1.927-.14.518-.334.929-.583 1.24-.242.32-.539.54-.885.676a3.132 3.132 0 0 1-1.125.192 3.27 3.27 0 0 1-1.063-.159c-.314-.108-.613-.323-.896-.651-.254-.295-.458-.716-.606-1.244-.15-.524-.226-1.19-.226-1.98 0-.715.064-1.332.199-1.853.126-.526.318-.947.574-1.263.246-.301.54-.522.885-.664a3.1 3.1 0 0 1 1.171-.206c.378 0 .738.06 1.083.19.346.13.632.35.869.648zM2539.553-274.16c0-1.215-.178-2.248-.527-3.08-.35-.832-.834-1.48-1.46-1.955-.624-.472-1.38-.82-2.265-1.032-.884-.21-1.878-.32-2.995-.32-.9 0-1.79.056-2.67.158a21.27 21.27 0 0 0-2.273.398v3.25h.504a13.254 13.254 0 0 1 1.874-.555c.733-.165 1.385-.249 1.967-.249.772 0 1.397.07 1.882.214.485.143.854.345 1.11.609.238.248.411.564.516.945.107.391.17.851.17 1.393v.242a6.351 6.351 0 0 0-1.676-.972c-.61-.242-1.288-.36-2.04-.36-1.828 0-3.233.548-4.222 1.642-.986 1.1-1.486 2.763-1.486 5.002 0 1.069.154 1.998.454 2.778.302.78.725 1.455 1.28 2.031a5.105 5.105 0 0 0 1.878 1.265 6.015 6.015 0 0 0 2.293.454c.702 0 1.346-.085 1.92-.248a6.414 6.414 0 0 0 1.576-.69l.147.577h4.042v-11.496m-4.167 2.584v5.894c-.246.105-.535.18-.885.238-.345.055-.66.088-.93.088-1.099 0-1.918-.315-2.464-.941-.547-.633-.823-1.51-.823-2.637 0-1.247.234-2.122.702-2.623.466-.49 1.157-.737 2.072-.737.42 0 .827.07 1.226.198.404.136.768.305 1.102.52zM2547.546-271.06l2.973 8.398h4.303l-7.225-17.758h-4.544l2.076 4.89-5.056 12.868h4.362zM2569.496-274.28c-.222-.168-.493-.374-.826-.605a5.945 5.945 0 0 0-.932-.574 5.724 5.724 0 0 0-1.265-.401 7.42 7.42 0 0 0-1.443-.134c-1.226 0-2.258.386-3.088 1.146-.83.763-1.242 1.737-1.242 2.92 0 .955.21 1.727.636 2.328.42.601 1.025 1.073 1.793 1.418.768.35 1.723.598 2.856.743 1.136.148 2.32.25 3.538.324v.068c0 .72-.294 1.213-.877 1.488-.582.272-1.435.408-2.576.408-.683 0-1.408-.12-2.188-.367a27.53 27.53 0 0 1-1.665-.56h-.378v3.126c.435.117 1.15.25 2.142.41.982.159 1.972.24 2.965.24 2.367 0 4.07-.36 5.121-1.092 1.048-.737 1.572-1.866 1.572-3.428v-8.83h-4.144v1.372m0 2.032v2.7a63.067 63.067 0 0 1-1.804-.186c-.648-.088-1.14-.18-1.479-.29-.41-.13-.725-.32-.942-.568-.219-.25-.326-.58-.326-.99 0-.27 0-.488.067-.655.048-.169.159-.33.341-.485.175-.155.386-.264.63-.34.241-.071.628-.11 1.144-.11.414 0 .826.082 1.253.26.422.161.795.382 1.113.664zM2588.741-275.651h-4.167v6.443c0 .52-.039 1.046-.083 1.567-.05.522-.147.906-.27 1.153-.159.287-.39.495-.683.625-.294.127-.706.195-1.25.195-.38 0-.76-.061-1.152-.18a6.267 6.267 0 0 1-1.268-.594v-9.209h-4.167v12.989h4.167v-1.434c.74.574 1.45 1.022 2.13 1.327.679.312 1.44.467 2.27.467 1.404 0 2.498-.41 3.286-1.232.796-.814 1.187-2.035 1.187-3.664v-8.453zM2603.423-275.651h-4.167v1.346c-.718-.58-1.393-1.01-2.017-1.294-.625-.279-1.354-.419-2.17-.419-1.583 0-2.855.61-3.802 1.83-.954 1.212-1.431 2.861-1.431 4.933 0 1.1.158 2.078.48 2.934.323.85.765 1.579 1.32 2.19a5.405 5.405 0 0 0 1.913 1.346c.752.32 1.501.483 2.25.483.784 0 1.42-.085 1.92-.248a13.42 13.42 0 0 0 1.537-.628v5.511h4.168v-17.984m-4.168 3.57v6.375c-.29.13-.601.215-.927.267-.318.051-.621.084-.888.084-1.09 0-1.913-.341-2.465-1.024-.543-.687-.814-1.63-.814-2.847 0-1.268.218-2.196.655-2.77.44-.576 1.145-.863 2.115-.863.381 0 .776.068 1.2.213.426.144.802.33 1.124.565zM2621.443-275.651h-10.089v3.048h2.821v11.1h-2.82v3.06h10.088v-3.06h-2.821v-11.1h2.82zM2636.09-275.651h-4.167v6.443c0 .52-.04 1.046-.083 1.567-.056.522-.144.906-.274 1.153a1.345 1.345 0 0 1-.68.625c-.294.127-.71.195-1.245.195-.377 0-.764-.061-1.156-.18a6.48 6.48 0 0 1-1.27-.594v-9.209h-4.166v12.989h4.167v-1.434c.741.574 1.451 1.022 2.134 1.327.679.312 1.436.467 2.27.467 1.4 0 2.495-.41 3.286-1.232.792-.814 1.187-2.035 1.187-3.664v-8.453zM2646.55-260.751h-.31a9.824 9.824 0 0 1-.72.18 4.1 4.1 0 0 1-.952.1c-.81 0-1.362-.133-1.649-.426-.286-.283-.43-.84-.43-1.668v-.097h3.212v-2.821h-3.084v-10.168h-4.164v10.168h-1.789v2.82h1.79v.358c0 1.579.418 2.759 1.264 3.55.846.795 2.115 1.187 3.83 1.187.62 0 1.172-.024 1.676-.062.5-.044.94-.102 1.327-.174v-2.947zM2659.642-269.167c0-2.14-.629-3.82-1.87-5.054-1.242-1.228-2.996-1.849-5.246-1.849-2.255 0-4.004.62-5.25 1.849-1.245 1.234-1.866 2.914-1.866 5.054 0 2.159.629 3.847 1.882 5.075 1.25 1.228 2.995 1.84 5.234 1.84 2.262 0 4.02-.614 5.258-1.854 1.237-1.234 1.858-2.92 1.858-5.061m-5.13-3.167c.27.334.47.732.606 1.196.13.473.203 1.123.203 1.951 0 .767-.072 1.405-.211 1.927-.139.518-.326.929-.574 1.24-.246.32-.543.54-.892.676a3.105 3.105 0 0 1-1.118.192c-.4 0-.76-.052-1.071-.159-.31-.108-.609-.323-.892-.651-.255-.295-.458-.716-.61-1.244-.146-.524-.222-1.19-.222-1.98 0-.715.064-1.332.195-1.853.13-.526.322-.947.578-1.263.246-.301.54-.522.885-.664a3.08 3.08 0 0 1 1.167-.206c.382 0 .745.06 1.087.19.338.13.633.35.87.648zM2670.266-266.624h-.366c-.183.058-.465.107-.857.136-.4.028-.726.044-.982.044a9.61 9.61 0 0 1-1.58-.112 9.017 9.017 0 0 1-1.47-.398v-8.697h-4.167v12.989h4.167v-1.915c.924.791 1.723 1.311 2.398 1.573.683.26 1.304.39 1.878.39.144 0 .306-.003.497-.013.183-.008.341-.023.481-.035v-3.964zM2683.52-266.442v-9.209h-4.16v6.486c0 .636 0 1.173-.05 1.614-.04.448-.119.809-.25 1.086a1.25 1.25 0 0 1-.634.607c-.282.128-.675.19-1.183.19a3 3 0 0 1-1.195-.246 8.212 8.212 0 0 1-1.036-.527v-9.21h-4.167v12.989h4.167v-1.434c.714.559 1.4 1.003 2.053 1.317.651.323 1.377.478 2.173.478.845 0 1.602-.198 2.257-.57.653-.385 1.165-.945 1.533-1.687.83.7 1.642 1.254 2.425 1.651.784.402 1.549.606 2.301.606 1.401 0 2.464-.421 3.193-1.261.722-.844 1.087-2.053 1.087-3.636v-8.453h-4.167v6.486c0 .644 0 1.185-.04 1.624-.038.438-.107.799-.245 1.076a1.17 1.17 0 0 1-.621.608c-.287.127-.69.19-1.203.19-.346 0-.687-.055-1.017-.175a8.355 8.355 0 0 1-1.218-.599zM2701.966-274.28a22.764 22.764 0 0 0-.83-.605 5.754 5.754 0 0 0-.932-.574 5.566 5.566 0 0 0-1.268-.401 7.325 7.325 0 0 0-1.44-.134c-1.226 0-2.258.386-3.089 1.146-.826.763-1.241 1.737-1.241 2.92 0 .955.214 1.727.636 2.328.42.601 1.017 1.073 1.793 1.418.768.35 1.723.598 2.86.743 1.129.148 2.316.25 3.534.324v.068c0 .72-.294 1.213-.877 1.488-.582.272-1.44.408-2.572.408-.687 0-1.416-.12-2.189-.367a27.636 27.636 0 0 1-1.664-.56h-.382v3.126c.435.117 1.149.25 2.138.41.99.159 1.98.24 2.973.24 2.363 0 4.062-.36 5.11-1.092 1.055-.737 1.579-1.866 1.579-3.428v-8.83h-4.14v1.372m0 2.032v2.7a62.175 62.175 0 0 1-1.808-.186c-.644-.088-1.141-.18-1.482-.29-.404-.13-.722-.32-.94-.568-.218-.25-.33-.58-.33-.99 0-.27.042-.488.076-.655.048-.169.159-.33.341-.485a1.69 1.69 0 0 1 .633-.34c.242-.071.624-.11 1.14-.11.412 0 .83.082 1.25.26.427.161.8.382 1.121.664zM2716.47-275.548c-.446-.113-.92-.202-1.42-.266a14.933 14.933 0 0 0-1.847-.099c-1.618 0-2.829.33-3.616.982-.792.657-1.188 1.777-1.188 3.366v6.082h-1.707v2.82h1.707v3.694h4.167v-3.693h3.904v-2.821h-3.904v-5.814c0-.34.075-.64.187-.916.107-.272.302-.485.574-.638.274-.167.675-.243 1.203-.243.214 0 .496.047.853.136.35.09.594.176.734.256h.346v-2.846zM2721.448-260.827h-4.373v3.16h4.373v-3.16m-.095-14.824h-4.175v12.989h4.175zM2736.77-269.167c0-2.14-.625-3.82-1.866-5.054-1.246-1.228-2.992-1.849-5.25-1.849-2.25 0-4.004.62-5.246 1.849-1.241 1.234-1.866 2.914-1.866 5.054 0 2.159.625 3.847 1.878 5.075 1.253 1.228 3 1.84 5.234 1.84 2.27 0 4.024-.614 5.262-1.854 1.233-1.234 1.854-2.92 1.854-5.061m-5.13-3.167c.27.334.478.732.606 1.196.136.473.207 1.123.207 1.951 0 .767-.075 1.405-.207 1.927-.143.518-.334.929-.582 1.24-.246.32-.543.54-.885.676-.35.132-.721.192-1.125.192-.397 0-.752-.052-1.063-.159-.314-.108-.613-.323-.9-.651-.246-.295-.45-.716-.602-1.244-.151-.524-.23-1.19-.23-1.98 0-.715.067-1.332.195-1.853.13-.526.325-.947.582-1.263.242-.301.54-.522.885-.664.341-.138.729-.206 1.171-.206.378 0 .737.06 1.079.19.342.13.628.35.869.648zM2751.018-275.651h-4.16v6.443c0 .52-.04 1.046-.087 1.567-.056.522-.146.906-.278 1.153a1.374 1.374 0 0 1-.679.625c-.294.127-.71.195-1.245.195-.382 0-.768-.061-1.149-.18a6.311 6.311 0 0 1-1.276-.594v-9.209h-4.167v12.989h4.167v-1.434c.74.574 1.447 1.022 2.13 1.327.687.312 1.443.467 2.274.467 1.396 0 2.498-.41 3.29-1.232.784-.814 1.18-2.035 1.18-3.664v-8.453zM2773.833-263.873c0-.77-.139-1.519-.408-2.256a4.988 4.988 0 0 0-1.152-1.853 6.952 6.952 0 0 0-2.293-1.535c-.842-.349-1.894-.521-3.147-.521h-2.759v-5.613h-4.45v17.208h7.302c1.094 0 2.018-.099 2.77-.289.753-.19 1.42-.471 1.995-.848a4.567 4.567 0 0 0 1.59-1.742c.366-.71.552-1.558.552-2.551m-4.61-.093c0 .479-.13.898-.39 1.247-.261.346-.566.59-.907.728a4.214 4.214 0 0 1-1.35.307c-.435.02-1.017.027-1.743.027h-.76v-5.125h1.265c.749 0 1.37.046 1.855.14.488.091.892.273 1.222.555.286.244.492.537.617.876.128.336.19.75.19 1.244zM2784.394-266.624h-.377c-.175.058-.458.107-.85.136a15.06 15.06 0 0 1-.986.044 9.582 9.582 0 0 1-1.575-.112 8.67 8.67 0 0 1-1.467-.398v-8.697h-4.167v12.989h4.167v-1.915c.912.791 1.712 1.311 2.39 1.573.68.26 1.304.39 1.879.39.146 0 .31-.003.496-.013.187-.008.346-.023.49-.035v-3.964z" style="fill:#656263;fill-opacity:1;fill-rule:nonzero;stroke:none;stroke-width:3.9732" transform="matrix(1.33333 0 0 -1.33333 -2764.772 -182.538)"/><path d="M2798.239-269.167c0-2.14-.621-3.82-1.863-5.054-1.25-1.228-3-1.849-5.25-1.849-2.254 0-4 .62-5.25 1.849-1.241 1.234-1.866 2.914-1.866 5.054 0 2.159.625 3.847 1.874 5.075 1.258 1.228 3.003 1.84 5.242 1.84 2.266 0 4.016-.614 5.258-1.854 1.238-1.234 1.855-2.92 1.855-5.061m-5.13-3.167c.27.334.474.732.61 1.196.13.473.198 1.123.198 1.951 0 .767-.067 1.405-.207 1.927-.135.518-.33.929-.574 1.24-.246.32-.543.54-.892.676a3.106 3.106 0 0 1-1.118.192c-.4 0-.756-.052-1.067-.159-.318-.108-.613-.323-.9-.651-.246-.295-.454-.716-.605-1.244-.147-.524-.226-1.19-.226-1.98 0-.715.067-1.332.194-1.853.139-.526.326-.947.582-1.263.247-.301.54-.522.885-.664.342-.138.73-.206 1.168-.206.377 0 .74.06 1.083.19.341.13.632.35.869.648zM2812.129-266.442v-9.209h-4.167v6.486c0 .636 0 1.173-.048 1.614-.04.448-.116.809-.254 1.086-.14.28-.346.483-.629.607-.278.128-.679.19-1.187.19-.407 0-.803-.079-1.195-.246a8.116 8.116 0 0 1-1.032-.527v-9.21h-4.168v12.989h4.168v-1.434c.714.559 1.4 1.003 2.052 1.317.656.323 1.377.478 2.17.478.853 0 1.606-.198 2.257-.57.66-.385 1.168-.945 1.537-1.687.83.7 1.638 1.254 2.421 1.651.784.402 1.56.606 2.305.606 1.397 0 2.468-.421 3.19-1.261.729-.844 1.093-2.053 1.093-3.636v-8.453h-4.167v6.486c0 .644 0 1.185-.039 1.624-.04.438-.107.799-.25 1.076a1.18 1.18 0 0 1-.625.608c-.286.127-.683.19-1.203.19a2.97 2.97 0 0 1-1.017-.175 8.558 8.558 0 0 1-1.21-.599zM2836.003-269.167c0-2.14-.624-3.82-1.87-5.054-1.245-1.228-2.991-1.849-5.242-1.849-2.258 0-4.004.62-5.25 1.849-1.245 1.234-1.874 2.914-1.874 5.054 0 2.159.629 3.847 1.886 5.075 1.25 1.228 3 1.84 5.238 1.84 2.262 0 4.016-.614 5.254-1.854 1.241-1.234 1.858-2.92 1.858-5.061m-5.125-3.167c.266.334.465.732.597 1.196.144.473.207 1.123.207 1.951 0 .767-.067 1.405-.21 1.927-.136.518-.326.929-.57 1.24-.255.32-.544.54-.897.676a3.083 3.083 0 0 1-1.114.192c-.407 0-.756-.052-1.075-.159-.306-.108-.609-.323-.892-.651-.254-.295-.462-.716-.61-1.244-.146-.524-.222-1.19-.222-1.98 0-.715.067-1.332.195-1.853.131-.526.322-.947.578-1.263.247-.301.543-.522.885-.664a3.101 3.101 0 0 1 1.172-.206c.381 0 .737.06 1.078.19.35.13.637.35.877.648zM2845.517-275.548a12.153 12.153 0 0 0-1.424-.266 14.912 14.912 0 0 0-1.843-.099c-1.618 0-2.828.33-3.62.982-.792.657-1.187 1.777-1.187 3.366v6.082h-1.708v2.82h1.708v3.694h4.167v-3.693h3.907v-2.821h-3.907v-5.814c0-.34.067-.64.183-.916a1.26 1.26 0 0 1 .578-.638c.274-.167.671-.243 1.2-.243.218 0 .5.047.848.136.354.09.602.176.742.256h.346v-2.846zM2850.488-260.827h-4.37v3.16h4.37v-3.16m-.1-14.824h-4.164v12.989h4.163zM2865.814-269.167c0-2.14-.625-3.82-1.867-5.054-1.249-1.228-2.995-1.849-5.245-1.849-2.255 0-4.005.62-5.25 1.849-1.242 1.234-1.87 2.914-1.87 5.054 0 2.159.628 3.847 1.885 5.075 1.25 1.228 2.992 1.84 5.235 1.84 2.262 0 4.016-.614 5.257-1.854 1.234-1.234 1.855-2.92 1.855-5.061m-5.13-3.167c.27.334.478.732.606 1.196.136.473.206 1.123.206 1.951 0 .767-.072 1.405-.21 1.927-.136.518-.33.929-.578 1.24-.247.32-.543.54-.893.676a3.084 3.084 0 0 1-1.113.192c-.404 0-.757-.052-1.075-.159-.31-.108-.605-.323-.889-.651-.254-.295-.461-.716-.609-1.244-.15-.524-.226-1.19-.226-1.98 0-.715.064-1.332.199-1.853.13-.526.321-.947.578-1.263.246-.301.54-.522.88-.664a3.137 3.137 0 0 1 1.176-.206c.378 0 .734.06 1.079.19.342.13.632.35.869.648zM2880.062-275.651h-4.164v6.443c0 .52-.039 1.046-.083 1.567-.056.522-.146.906-.278 1.153a1.366 1.366 0 0 1-.675.625c-.302.127-.718.195-1.249.195-.381 0-.764-.061-1.153-.18a6.291 6.291 0 0 1-1.272-.594v-9.209h-4.167v12.989h4.167v-1.434c.737.574 1.447 1.022 2.13 1.327.683.312 1.44.467 2.274.467 1.404 0 2.498-.41 3.29-1.232.788-.814 1.18-2.035 1.18-3.664v-8.453zM2361.83-299.75h-4.636l-1.191 3.465h-6.286l-1.192-3.465h-4.496l6.347 17.208h5.103l6.352-17.208m-6.9 6.625-2.072 6.051-2.075-6.05zM2374.949-298.26c0-1.217-.175-2.243-.524-3.073-.35-.829-.838-1.49-1.463-1.956-.62-.475-1.377-.822-2.262-1.034-.884-.213-1.885-.322-2.995-.322-.904 0-1.793.052-2.67.16-.877.111-1.633.243-2.273.399v3.247h.504a13.514 13.514 0 0 1 1.87-.549 8.626 8.626 0 0 1 1.971-.254c.772 0 1.397.068 1.882.213.481.144.854.348 1.106.61.242.246.415.562.524.946.103.386.163.85.163 1.39v.246a6.215 6.215 0 0 0-1.673-.978 5.609 5.609 0 0 0-2.044-.359c-1.824 0-3.229.551-4.222 1.65-.99 1.095-1.482 2.758-1.482 4.993 0 1.073.151 2.004.454 2.782a6.153 6.153 0 0 0 1.273 2.035c.512.541 1.14.956 1.889 1.26.745.298 1.51.457 2.285.457.707 0 1.347-.086 1.92-.25a6.349 6.349 0 0 0 1.573-.697l.151.584h4.043v-11.5m-4.167 2.585v5.896c-.246.103-.532.18-.88.233-.35.064-.66.09-.94.09-1.09 0-1.913-.315-2.456-.941-.55-.63-.822-1.508-.822-2.631 0-1.251.234-2.126.702-2.623.458-.497 1.156-.733 2.072-.733.41 0 .819.064 1.226.192.403.13.764.306 1.098.518zM2389.883-294.008h-9.521c.064-1.032.45-1.82 1.164-2.363.706-.547 1.761-.818 3.15-.818.877 0 1.73.163 2.553.485.83.326 1.483.673 1.956 1.036h.466v-3.343a14.901 14.901 0 0 0-2.662-.824 13.798 13.798 0 0 0-2.767-.257c-2.61 0-4.605.586-5.994 1.762-1.39 1.172-2.088 2.84-2.088 5.007 0 2.14.656 3.841 1.975 5.098 1.315 1.252 3.116 1.877 5.409 1.877 2.11 0 3.702-.536 4.76-1.6 1.064-1.066 1.6-2.6 1.6-4.603v-1.457m-4.14 2.43c-.04.872-.243 1.524-.649 1.959-.411.44-1.044.66-1.909.66-.795 0-1.455-.21-1.97-.626-.517-.415-.808-1.078-.866-1.994zM2404.092-299.75h-4.167v6.449c0 .518-.039 1.043-.083 1.563-.052.522-.143.906-.274 1.153-.154.289-.382.492-.683.622-.294.132-.71.196-1.245.196-.378 0-.76-.06-1.153-.18a6.172 6.172 0 0 1-1.273-.592v-9.211h-4.167v12.99h4.167v-1.433c.738.58 1.452 1.02 2.135 1.327.682.31 1.439.47 2.27.47 1.404 0 2.498-.41 3.286-1.227.792-.819 1.187-2.045 1.187-3.674v-8.453zM2412.9-300.092c-1.133 0-2.169.138-3.1.406-.94.272-1.758.689-2.448 1.251-.687.56-1.219 1.273-1.6 2.126-.377.852-.565 1.853-.565 3.008 0 1.212.202 2.254.612 3.133a5.88 5.88 0 0 0 1.692 2.188c.698.545 1.506.941 2.43 1.195.914.254 1.865.388 2.855.388.892 0 1.707-.097 2.452-.293.745-.193 1.451-.44 2.091-.745v-3.542h-.586c-.163.134-.357.29-.582.473a4.865 4.865 0 0 1-.838.542c-.317.167-.66.314-1.04.417-.38.116-.814.17-1.319.17-1.102 0-1.955-.355-2.553-1.055-.593-.706-.892-1.659-.892-2.871 0-1.246.302-2.192.915-2.846.613-.642 1.479-.96 2.608-.96.52 0 .993.052 1.408.172a4.86 4.86 0 0 1 1.052.423c.254.154.489.315.69.483.195.171.386.328.551.495h.586v-3.55a11.566 11.566 0 0 0-2.048-.735 9.78 9.78 0 0 0-2.37-.272z" style="fill:#656263;fill-opacity:1;fill-rule:nonzero;stroke:none;stroke-width:3.9732" transform="matrix(1.33333 0 0 -1.33333 -2764.772 -182.538)"/><path d="m2424.148-295.158 2.973 8.398h4.303l-7.233-17.757h-4.54l2.076 4.89-5.056 12.867h4.362zM2446.672-284.85h-.318a8.844 8.844 0 0 1-.721.184 3.93 3.93 0 0 1-.947.105c-.807 0-1.362-.144-1.653-.433-.282-.283-.427-.842-.427-1.67v-.095h3.205v-2.825h-3.073v-10.166h-4.171v10.166h-1.789v2.825h1.789v.353c0 1.58.423 2.764 1.269 3.552.842.796 2.115 1.191 3.826 1.191.616 0 1.172-.024 1.676-.066.504-.044.942-.103 1.335-.169v-2.952zM2459.756-293.263c0-2.14-.625-3.822-1.863-5.055-1.253-1.232-3.003-1.851-5.253-1.851s-4.004.619-5.246 1.85c-1.246 1.234-1.866 2.916-1.866 5.056 0 2.158.624 3.844 1.881 5.07 1.25 1.232 2.996 1.845 5.23 1.845 2.267 0 4.024-.617 5.262-1.855 1.238-1.234 1.855-2.92 1.855-5.06m-5.13-3.17c.27.33.474.732.613 1.2.131.473.195 1.119.195 1.95 0 .765-.064 1.407-.207 1.924-.135.52-.33.933-.578 1.243a2.023 2.023 0 0 1-.888.671 3.113 3.113 0 0 1-1.122.198c-.4 0-.752-.052-1.063-.163-.313-.107-.613-.324-.896-.65-.254-.298-.458-.715-.61-1.245-.146-.524-.226-1.184-.226-1.977 0-.714.072-1.335.199-1.857.126-.523.322-.944.578-1.259.246-.298.54-.522.885-.657.337-.142.73-.214 1.171-.214.374 0 .737.068 1.075.192.346.13.636.345.873.644zM2470.38-290.725h-.366c-.179.062-.466.108-.857.14a12.26 12.26 0 0 1-.982.042 9.87 9.87 0 0 1-1.576-.11 9.92 9.92 0 0 1-1.466-.394v-8.703h-4.167v12.99h4.167v-1.909c.915.786 1.715 1.308 2.39 1.566.683.258 1.304.392 1.878.392.144 0 .31-.002.497-.013.186-.008.345-.024.48-.036v-3.967zM2491.277-294.341c0-1.696-.717-3.075-2.153-4.133-1.436-1.06-3.387-1.588-5.847-1.588-1.424 0-2.67.124-3.725.376-1.063.25-2.049.566-2.972.954v4.13h.48a10.396 10.396 0 0 1 3.082-1.69c1.14-.389 2.227-.587 3.275-.587.27 0 .624.024 1.063.07.442.043.8.118 1.074.229.342.138.621.312.835.518.226.204.334.516.334.923 0 .379-.163.704-.478.974-.322.272-.787.485-1.404.63a44.92 44.92 0 0 1-2.053.433c-.722.132-1.397.309-2.025.518-1.448.47-2.491 1.102-3.128 1.907-.636.805-.954 1.807-.954 3.007 0 1.593.722 2.9 2.157 3.915 1.436 1.01 3.282 1.521 5.54 1.521 1.134 0 2.251-.108 3.353-.331 1.106-.218 2.06-.491 2.871-.827v-3.967h-.473c-.69.557-1.544 1.03-2.553 1.404a8.721 8.721 0 0 1-4.183.49 4.228 4.228 0 0 1-1.055-.288 2.09 2.09 0 0 1-.776-.528 1.158 1.158 0 0 1-.326-.809c0-.45.175-.797.52-1.04.346-.242 1-.465 1.967-.669.629-.132 1.234-.262 1.82-.38a19.771 19.771 0 0 0 1.874-.512c1.323-.425 2.293-1.015 2.918-1.764.625-.737.942-1.703.942-2.887zM2510.593-299.75h-4.447v11.514l-3.174-7.477h-3.05l-3.173 7.477v-11.514h-4.191v17.208h5.16l3.85-8.64 3.841 8.64h5.184zM2525.67-299.75h-12.446v17.208h12.447v-3.343h-7.99v-2.949h7.423v-3.334h-7.423v-4.243h7.99zM2538.677-295.64c0-1.334-.602-2.42-1.805-3.241-1.206-.82-2.851-1.234-4.939-1.234-1.16 0-2.212.109-3.15.324-.943.213-1.7.454-2.266.716v3.406h.381c.21-.143.454-.298.725-.479a7.819 7.819 0 0 1 1.168-.549c.43-.174.92-.33 1.471-.458a7.734 7.734 0 0 1 1.758-.19c.818 0 1.427.091 1.823.274.397.182.594.454.594.81 0 .313-.116.548-.354.691-.234.138-.671.276-1.32.41-.31.068-.732.141-1.26.227-.532.077-1.013.176-1.447.294-1.18.305-2.057.792-2.631 1.436-.57.656-.858 1.465-.858 2.437 0 1.253.59 2.291 1.774 3.123 1.187.825 2.809 1.246 4.857 1.246.974 0 1.902-.105 2.794-.297.893-.198 1.587-.41 2.091-.636v-3.287h-.361a8.64 8.64 0 0 1-2.119 1.05 7.576 7.576 0 0 1-2.405.401c-.672 0-1.238-.099-1.7-.283-.462-.186-.69-.454-.69-.793 0-.307.107-.548.313-.709.211-.158.703-.322 1.475-.485a46.49 46.49 0 0 1 1.374-.25c.492-.083.985-.178 1.482-.307 1.098-.283 1.905-.731 2.432-1.346.528-.615.792-1.381.792-2.3z" style="fill:#656263;fill-opacity:1;fill-rule:nonzero;stroke:none;stroke-width:3.9732" transform="matrix(1.33333 0 0 -1.33333 -2764.772 -182.538)"/><path d="m2171.392-361.903 122.017 47.717v126.524l-122.017 50.759zM2121.813-232.644h-17.069v-44.086h-14.092v44.086h-17.073v10.565h48.234zM2159.818-276.73h-31.949v9.708h8.929v35.235h-8.929v9.708h31.949v-9.708h-8.928v-35.235h8.928z" style="fill:#1a64b7;fill-opacity:1;fill-rule:nonzero;stroke:none;stroke-width:3.9732" transform="matrix(1.33333 0 0 -1.33333 -2764.772 -182.538)"/><path d="M2216.514-239.341c0-2.449-.431-4.84-1.289-7.176-.861-2.344-2.083-4.311-3.678-5.902-2.188-2.153-4.62-3.78-7.302-4.887-2.685-1.098-6.03-1.653-10.026-1.653h-8.789v-17.77h-14.096v54.65h23.23c3.48 0 6.414-.297 8.804-.9 2.39-.594 4.505-1.496 6.348-2.697 2.2-1.449 3.888-3.294 5.052-5.548 1.164-2.252 1.746-4.959 1.746-8.117m-14.644-.287c0 1.542-.419 2.869-1.25 3.975-.83 1.115-1.8 1.891-2.901 2.33-1.467.59-2.895.911-4.292.974-1.393.061-3.251.095-5.575.095h-2.422v-16.37h4.032c2.405 0 4.376.147 5.928.444 1.556.293 2.86.88 3.912 1.76.904.785 1.56 1.714 1.963 2.807.403 1.086.605 2.42.605 3.984zM2272.286-276.73h-14.69l-3.802 11.04h-20.045l-3.798-11.04h-14.275l20.191 54.651h16.227l20.192-54.65m-21.891 21.062-6.62 19.312-6.631-19.312z" style="fill:#fff;fill-opacity:1;fill-rule:nonzero;stroke:none;stroke-width:3.9732" transform="matrix(1.33333 0 0 -1.33333 -2764.772 -182.538)"/></svg>