<svg xmlns="http://www.w3.org/2000/svg" xml:space="preserve" width="1162.2733" height="300" viewBox="0 0 1162.2733 300"><defs><linearGradient id="a" x1="0" x2="1" y1="0" y2="0" gradientTransform="translate(919.29 532.732) scale(-110.3986 110.3986)" gradientUnits="userSpaceOnUse" spreadMethod="pad"><stop offset="0" style="stop-opacity:1;stop-color:#80bf26"/><stop offset="1" style="stop-opacity:1;stop-color:#c3d94e"/></linearGradient><linearGradient id="b" x1="0" x2="1" y1="0" y2="0" gradientTransform="matrix(-74.83901 0 0 74.83901 903.927 522.193)" gradientUnits="userSpaceOnUse" spreadMethod="pad"><stop offset="0" style="stop-opacity:1;stop-color:#00a2e6"/><stop offset="1" style="stop-opacity:1;stop-color:#55c3f1"/></linearGradient></defs><path d="M808.924 510.274c0-4.244.474-8.374 1.35-12.35-2.725 12.899 1.214 21.758 5.2 27.017 5.808 7.684 15.35 12.82 28.453 15.398a37.155 37.155 0 0 0 22.253 7.368 37.235 37.235 0 0 0 22.265-7.368c13.095-2.578 22.642-7.714 28.45-15.398 3.986-5.259 7.916-14.12 5.192-27.016a56.805 56.805 0 0 1 1.355 12.349c0 31.582-25.685 57.264-57.256 57.264-31.576 0-57.262-25.682-57.262-57.264" style="fill:url(#a);stroke:none;stroke-width:2.77202" transform="matrix(2.61956 0 0 -2.61956 -2119.025 1486.7)"/><path d="M843.927 540.34c-9.19-6.823-15.169-17.75-15.169-30.052 0-2.803.322-5.533.907-8.155-1.42 6.8.848 9.813 1.635 10.858 2.675 3.526 10.756 9.458 34.88 9.466 24.125-.008 32.214-5.94 34.895-9.466.784-1.051 3.035-4.067 1.63-10.858.582 2.622.898 5.352.898 8.141 0 12.316-5.966 23.243-15.158 30.065-6.542 1.292-13.96 1.952-22.259 1.952-8.308 0-15.723-.66-22.26-1.952" style="fill:url(#b);stroke:none;stroke-width:2.77202" transform="matrix(2.61956 0 0 -2.61956 -2119.025 1486.7)"/><path d="M916.893 524.941c-5.807 7.684-15.351 12.82-28.449 15.401 9.192-6.824 15.16-17.754 15.16-30.068 0-2.788-.316-5.519-.898-8.144a36.099 36.099 0 0 0-.255-1.106.813.813 0 0 1-.044-.16c-.061-.23-.105-.45-.178-.688-.085-.325-.188-.635-.29-.948a41.55 41.55 0 0 0-.563-1.702.58.58 0 0 1-.053-.136 62.266 62.266 0 0 0-.649-1.63c-.06-.147-.124-.277-.185-.416-.156-.355-.314-.718-.483-1.056a17.502 17.502 0 0 0-.438-.884c-.091-.186-.18-.369-.277-.535a21.012 21.012 0 0 0-.565-1.029c-.05-.102-.111-.196-.164-.282-5.694-9.822-15.712-16.813-27.437-18.362-.189-.03-.383-.053-.583-.08-.321-.028-.64-.067-.956-.092-.319-.039-.63-.061-.953-.083-.236-.006-.474-.034-.716-.042a44.545 44.545 0 0 0-1.73-.044c-.587 0-1.17.022-1.743.044-.238.008-.477.036-.71.042-.324.022-.637.044-.953.083-.319.025-.638.064-.957.091-.196.028-.385.05-.584.08-11.718 1.559-21.739 8.541-27.435 18.363-.058.085-.114.18-.166.282-.197.341-.386.682-.571 1.037-.09.172-.178.341-.261.527-.155.285-.305.58-.446.884-.17.338-.32.701-.483 1.056-.058.139-.124.269-.183.416a47.478 47.478 0 0 0-.651 1.63c-.017.055-.025.1-.047.15-.191.524-.363 1.059-.538 1.585a1.77 1.77 0 0 1-.033.097c-.092.319-.2.63-.288.954-.07.238-.117.457-.175.687-.011.061-.028.111-.039.161-.097.377-.183.748-.26 1.106a37.482 37.482 0 0 0-.904 8.158c0 12.3 5.976 23.23 15.168 30.054-13.106-2.58-22.644-7.717-28.454-15.401-3.984-5.256-7.926-14.118-5.198-27.016.103-.435.197-.87.305-1.297.083-.364.177-.718.277-1.087.166-.646.35-1.289.543-1.921.056-.186.114-.388.175-.571.21-.665.435-1.33.676-1.985.07-.202.13-.39.206-.588.293-.803.607-1.59.931-2.38.114-.247.225-.486.33-.733.238-.529.477-1.064.723-1.58.205-.426.413-.848.627-1.266.16-.32.319-.632.48-.935.26-.493.526-.964.79-1.441.127-.21.249-.427.38-.646.307-.535.631-1.073.964-1.591.053-.094.11-.177.166-.269 8.682-13.602 22.847-23.127 38.925-25.838h.008c.601-.091 1.208-.186 1.816-.26.31-.042.62-.086.93-.125.478-.047.963-.1 1.445-.15.488-.036.981-.08 1.467-.108.363-.022.723-.053 1.083-.075a65.016 65.016 0 0 1 2.659-.064c.89 0 1.78.028 2.658.064.363.03.726.053 1.084.075.49.028.984.064 1.475.108.482.05.962.086 1.438.15.314.039.624.083.926.125.621.074 1.223.169 1.827.26l.008.017c16.067 2.694 30.246 12.219 38.916 25.821.061.092.12.175.172.269.336.527.652 1.056.97 1.591.125.22.253.427.37.646.27.477.534.948.786 1.441.167.303.325.616.477.926.222.427.433.849.638 1.275.246.516.482 1.051.723 1.586.103.241.22.48.327.735a46.281 46.281 0 0 1 1.137 2.96c.238.654.468 1.32.676 1.985.064.183.117.385.18.57.189.633.37 1.276.547 1.922.091.369.182.723.274 1.087.097.426.202.862.294 1.297 2.725 12.893-1.206 21.76-5.192 27.016" style="fill:#0075b7;fill-opacity:1;fill-rule:nonzero;stroke:none;stroke-width:2.77202" transform="matrix(2.61956 0 0 -2.61956 -2119.025 1486.7)"/><path d="M1138.566 546.92v-5.72h-6.243v-4.074h6.243v-3.978h-6.243v-4.078h6.243v-7.423h8.471v25.273zM1130.133 499.178c-4.574 0-7.276 4.31-7.276 9.633 0 5.316 2.73 9.619 7.276 9.619 4.546 0 7.271-4.303 7.271-9.62 0-5.322-2.686-9.632-7.27-9.632m0 23.346c-8.558 0-15.76-5.68-15.76-13.713 0-8.042 7.202-13.714 15.76-13.714 8.565 0 15.755 5.672 15.755 13.714 0 8.033-7.19 13.713-15.756 13.713M989.854 534.735v12.186h-8.474v-34.45h8.474v18.184h6.281v4.08zM989.854 500.626h-28.605v13.813h-8.48v-12.59a5.304 5.304 0 0 1 5.306-5.303h31.779zM1095.112 500.626h-28.097v11.33h-8.477v-10.107a5.308 5.308 0 0 1 5.242-5.303h31.332zM1246.333 535.393v11.526h-8.474v-19.717s-2.61-2.534-12.36-2.534h-11.249v17.048h15.853v4.08h-24.324V525.89a5.298 5.298 0 0 1 5.303-5.294h14.417c9.91 0 12.36 2.528 12.36 2.528v-10.62h8.474v18.811h6.282v4.078zM1246.333 500.626h-28.604v13.98h-8.48v-12.757a5.3 5.3 0 0 1 5.298-5.303H1246.333zM1067.04 540.195c3.235 0 4.881-3.57 4.881-6.952 0-3.39-1.646-6.974-4.881-6.974-3.224 0-4.879 3.584-4.879 6.974 0 3.382 1.655 6.952 4.879 6.952m28.072-2.728v9.459h-8.471v-24.092s-3.396-2.883-11.457-2.883h-4.327v2.412c6.01 1.289 9.583 5.613 9.583 10.764 0 2.774-1.034 5.316-2.92 7.265h3.721v4.086h-9.96v4.737h-8.474v-4.737h-9.96v-4.086h3.729c-1.894-1.949-2.928-4.49-2.928-7.265 0-5.15 3.565-9.475 9.583-10.764v-2.406h-11.124v-4.075h22.952c8.036 0 11.582 2.786 11.582 2.786v-9.639h8.471v24.344h6.22v4.094zM1041.155 528.143s1.855 2.362 1.855 7.451V541.327a5.305 5.305 0 0 1-5.306 5.308h-34.124v-4.086h30.955v-6.955c0-5.596-2.444-7.45-2.444-7.45H1000v-4.087h18.332v-6.974h-15.88v-4.086h32.083v-16.4h8.474v15.177c0 2.917-2.373 5.309-5.306 5.309h-10.81v6.974h18.558v4.086zM961.265 522.71c-3.795 0-5.57 4.352-5.57 8.693 0 4.339 1.775 8.685 5.57 8.685 3.795 0 5.571-4.346 5.571-8.685 0-4.34-1.776-8.693-5.571-8.693m14.916 21.77h-10.686v4.728h-8.466v-4.729h-10.68v-4.086h4.623c-2.359-2.32-3.82-5.41-3.82-8.845 0-7.144 5.514-12.943 14.113-12.943 8.596 0 14.112 5.8 14.112 12.943 0 3.434-1.466 6.525-3.817 8.845h4.62zM1175.766 499.183c-5.114 0-8.213 4.716-8.213 10.52 0 5.816 3.099 10.523 8.213 10.523 5.117 0 8.208-4.707 8.208-10.523 0-5.804-3.09-10.52-8.208-10.52m22.517 25.101h-5.621s2.752 2.398 2.752 8.111v8.599a5.295 5.295 0 0 1-5.292 5.308h-33.524v-4.077h30.348v-9.83c0-6.373-3.349-8.111-3.349-8.111h-7.08v10.936h-8.646v-10.936h-14.142v-4h9.375c-2.556-2.6-4.1-6.076-4.1-10.074 0-8.8 7.487-15.113 16.72-15.113 9.234 0 16.73 6.312 16.73 15.113 0 3.998-1.555 7.474-4.103 10.074h9.932zM1105.226 520.385v4.931c10.555 1.567 14.871 7.551 15.783 16.4h-15.783v4.08h20.543c3.135 0 4.546-1.957 4.072-5.486-.576-4.33-3.382-18.417-24.615-19.925M1146.297 483.8c-.665.354-1.79.767-2.852.767-2.847 0-4.89-1.99-4.89-5.128 0-3.266 2.262-5.2 4.967-5.2 1.065 0 2.046.288 2.775.687l.77-1.721c-.842-.488-2.328-.943-3.661-.943-4.793 0-7.814 3.152-7.814 7.213 0 3.767 2.999 7.063 7.853 7.063 1.438 0 2.78-.507 3.722-1.064zM1156.302 477.549c0 1.638-.573 3.584-2.406 3.584-1.796 0-2.39-1.946-2.39-3.584 0-1.738.516-3.831 2.39-3.831 1.913 0 2.406 2.093 2.406 3.83m-7.57 0c0 3.194 2.52 5.048 5.164 5.048 2.659 0 5.19-1.854 5.19-5.047 0-3.063-2.094-5.287-5.19-5.287-3.077 0-5.164 2.224-5.164 5.287M1163.817 480.626h.033l.532.76c.319.421.89 1.211 1.702 1.211.59 0 1.223-.318 1.777-.89l-.99-1.82c-.435.221-.712.34-1.244.34-.904 0-1.79-.737-1.79-2.869v-4.867h-2.626v9.868h2.606zM1171.743 477.302c0-2.065 1.01-3.462 2.426-3.462 1.757 0 2.348 2.048 2.348 3.787 0 1.696-.743 3.392-2.246 3.392-1.66 0-2.528-1.444-2.528-3.717m0 3.695h.04c.695 1.007 1.976 1.6 3.16 1.6 3.096 0 4.354-2.78 4.354-4.954 0-2.606-1.774-5.38-4.593-5.38-1.203 0-2.226.593-2.96 1.455v-6.16h-2.623v14.8h2.623zM1188.446 477.549c0 1.638-.566 3.584-2.4 3.584-1.8 0-2.39-1.946-2.39-3.584 0-1.738.513-3.831 2.39-3.831 1.915 0 2.4 2.093 2.4 3.83m-7.568 0c0 3.194 2.523 5.048 5.167 5.048 2.659 0 5.19-1.854 5.19-5.047 0-3.063-2.09-5.287-5.19-5.287-3.077 0-5.167 2.224-5.167 5.287M1195.969 480.626h.036l.532.76c.313.421.884 1.211 1.694 1.211.59 0 1.225-.318 1.782-.89l-.992-1.82c-.433.221-.71.34-1.24.34-.908 0-1.798-.737-1.798-2.869v-4.867h-2.617v9.868h2.603zM1205.297 477.743c-1.283-.39-1.932-1.142-1.932-2.264 0-.865.549-1.467 1.181-1.467 1.042 0 2.403 1.306 2.207 4.203zm.829-4.302c-.732-.57-1.622-1.18-2.53-1.18-1.537 0-2.82 1.18-2.82 2.999 0 1.868 1.367 2.933 3.65 3.584l2.327.696c-.136.906-.943 1.48-1.791 1.48-1.123 0-1.916-.416-2.606-1.003l-.85 1.241c1.221 1.007 2.427 1.34 3.791 1.34 1.81 0 4.039-.594 4.039-3.674v-4.02c0-.79.097-1.718.419-2.413h-2.784c-.2.335-.257.909-.257 1.444zM1214.978 482.359h2.586v-1.339h-2.586v-4.845c0-1.63.493-2.32 1.366-2.32.569 0 .901.157 1.259.34l.452-1.303a5.62 5.62 0 0 0-2.584-.632c-2.168 0-3.11 1.14-3.11 3.152v5.608h-1.389v1.339h1.389v2.367l2.617.585zM1222.177 472.491h-2.622v9.869h2.622zm-2.883 12.82c0 .758.638 1.523 1.522 1.523.91 0 1.622-.751 1.622-1.522 0-.846-.613-1.652-1.583-1.652-.923 0-1.56.806-1.56 1.652M1231.883 477.549c0 1.638-.57 3.584-2.403 3.584-1.8 0-2.39-1.946-2.39-3.584 0-1.738.513-3.831 2.39-3.831 1.91 0 2.403 2.093 2.403 3.83m-7.573 0c0 3.194 2.523 5.048 5.17 5.048 2.658 0 5.186-1.854 5.186-5.047 0-3.063-2.095-5.287-5.186-5.287-3.08 0-5.17 2.224-5.17 5.287M1239.395 481.192c.887.948 2.135 1.406 3.377 1.406 2.306 0 3.526-1.267 3.526-3.754v-6.353h-2.617v6.065c0 1.375-.618 2.287-1.98 2.287-1.275 0-2.286-.854-2.286-2.47v-5.882h-2.62v9.868h2.6zM972.274 477.549c0 1.638-.568 3.584-2.403 3.584-1.796 0-2.39-1.946-2.39-3.584 0-1.738.513-3.831 2.39-3.831 1.91 0 2.403 2.093 2.403 3.83m-7.567 0c0 3.194 2.52 5.048 5.164 5.048 2.667 0 5.19-1.854 5.19-5.047 0-3.063-2.094-5.287-5.19-5.287-3.08 0-5.164 2.224-5.164 5.287M979.794 480.626h.036l.535.768c.31.413.885 1.203 1.694 1.203.596 0 1.223-.318 1.777-.89l-.984-1.82c-.438.221-.71.34-1.247.34-.901 0-1.791-.737-1.791-2.869v-4.867h-2.625v9.868h2.605zM991.272 478.607c.097 1.5-.438 2.525-1.74 2.525-1.495 0-2.168-1.2-2.146-2.525zm-3.93-1.414c-.056-1.854 1.247-3.237 2.882-3.237.968 0 2 .332 2.645.787l.754-1.375c-1.35-.79-2.747-1.106-3.87-1.106-2.977 0-5.211 2.107-5.211 5.364 0 3.038 2.212 4.97 5.031 4.97 3.077 0 4.36-2.467 4.166-5.403zM999.908 477.743c-1.28-.39-1.93-1.142-1.93-2.264 0-.865.547-1.467 1.179-1.467 1.048 0 2.411 1.306 2.21 4.203zm.826-4.302c-.724-.57-1.613-1.18-2.52-1.18-1.535 0-2.819 1.18-2.819 2.999 0 1.868 1.358 2.94 3.645 3.584l2.326.696c-.133.906-.945 1.48-1.793 1.48-1.118 0-1.91-.416-2.598-1.003l-.854 1.241c1.223 1.007 2.426 1.34 3.787 1.34 1.818 0 4.042-.594 4.042-3.674v-4.02c0-.79.102-1.718.42-2.413h-2.782c-.197.335-.255.909-.255 1.444zM958.1 480.134l5.195 6.184h-2.905l-4.796-5.982h-.041v5.982h-2.778V472.5h2.778v6.982h.041l5.12-6.982h3.454zM1019.872 484.452h-4.637v-3.787h4.535v-1.855h-4.535v-4.465h5.485v-1.852h-8.271v13.813h7.423zM1025.449 481.192c.89.948 2.137 1.406 3.379 1.406 2.306 0 3.526-1.267 3.526-3.754v-6.353h-2.62v6.065c0 1.375-.612 2.287-1.979 2.287-1.278 0-2.284-.854-2.284-2.462v-5.89h-2.625v9.868h2.603zM1047.898 472.491h-2.626v9.869h2.626zm-2.878 12.82c0 .758.632 1.523 1.516 1.523.91 0 1.616-.751 1.616-1.522 0-.846-.61-1.652-1.574-1.652-.926 0-1.558.806-1.558 1.652M1053.183 480.626h.042l.532.768c.313.413.884 1.203 1.694 1.203.593 0 1.225-.318 1.774-.89l-.982-1.82c-.435.221-.712.34-1.242.34-.909 0-1.796-.737-1.796-2.869v-4.867h-2.625v9.868h2.603zM1065.51 477.549c0 1.638-.568 3.584-2.403 3.584-1.793 0-2.39-1.946-2.39-3.584 0-1.738.516-3.831 2.39-3.831 1.91 0 2.404 2.093 2.404 3.83m-7.57 0c0 3.194 2.519 5.048 5.166 5.048 2.661 0 5.187-1.854 5.187-5.047 0-3.063-2.093-5.287-5.187-5.287-3.08 0-5.167 2.224-5.167 5.287M1073.028 481.192c.884.948 2.126 1.406 3.37 1.406 2.307 0 3.527-1.267 3.527-3.754v-6.353h-2.617v6.065c0 1.375-.613 2.287-1.974 2.287-1.283 0-2.284-.854-2.284-2.462v-5.89h-2.625v9.868h2.603zM1085.213 481.192h.042c.673.89 1.956 1.406 3.115 1.406 1.245 0 2.31-.494 2.9-1.406.829.79 2.115 1.383 3.276 1.406 2.229.022 3.39-1.342 3.43-3.61v-6.467h-2.623v5.99c0 1.145-.396 2.332-1.694 2.332-1.264 0-2.057-.751-2.057-2.462v-5.89h-2.62v6.02c0 1.376-.612 2.332-1.737 2.332-1.242 0-2.01-.854-2.01-2.525v-5.827h-2.622v9.868h2.6zM1106.83 478.607c.098 1.5-.429 2.525-1.734 2.525-1.5 0-2.17-1.2-2.146-2.525zm-3.921-1.414c-.062-1.854 1.241-3.237 2.88-3.237.964 0 1.993.332 2.639.787l.754-1.375c-1.345-.79-2.748-1.106-3.867-1.106-2.98 0-5.209 2.107-5.209 5.364 0 3.038 2.212 4.97 5.034 4.97 3.074 0 4.358-2.467 4.158-5.403zM1114.053 481.192c.887.948 2.126 1.406 3.368 1.406 2.315 0 3.535-1.267 3.535-3.754v-6.353h-2.623v6.065c0 1.375-.615 2.287-1.976 2.287-1.28 0-2.281-.854-2.281-2.462v-5.89h-2.626v9.868h2.603zM1126.733 482.359h2.59v-1.339h-2.59v-4.845c0-1.63.496-2.32 1.361-2.32.571 0 .91.157 1.264.34l.452-1.303c-.768-.413-1.716-.632-2.58-.632-2.171 0-3.116 1.14-3.116 3.152v5.608h-1.386v1.339h1.386v2.367l2.62.585zM1041.423 482.359l-2.747-6.847-2.462 6.847h-2.713l4.127-9.874h1.838l4.421 9.874z" style="fill:#898989;fill-opacity:1;fill-rule:nonzero;stroke:none;stroke-width:2.77202" transform="matrix(2.61956 0 0 -2.61956 -2119.025 1486.7)"/></svg>