<svg xmlns="http://www.w3.org/2000/svg" xml:space="preserve" width="1108.27" height="200" viewBox="0 0 1108.27 200"><path d="M61.04 354.906h-96.72v96.784h96.72z" style="fill:#005aa9;fill-opacity:1;fill-rule:nonzero;stroke:none;stroke-width:3.07692" transform="matrix(1.33333 0 0 -1.33333 47.572 602.254)"/><path d="M61.028 437.112h135.397V301.69H61.028Z" style="fill:#f05a22;fill-opacity:1;fill-rule:nonzero;stroke:none;stroke-width:3.07692" transform="matrix(1.33333 0 0 -1.33333 47.572 602.254)"/><path d="M-11.7 386.724c.27-1.997.834-3.498 1.646-4.483 1.508-1.788 4.105-2.69 7.772-2.69 2.197 0 3.979.24 5.336.702 2.603.917 3.904 2.604 3.904 5.077 0 1.44-.637 2.542-1.904 3.336-1.28.766-3.305 1.437-6.062 2.027l-4.726 1.05c-4.625 1.018-7.825 2.138-9.56 3.341-2.932 2.028-4.4 5.16-4.4 9.425 0 3.904 1.425 7.15 4.305 9.732 2.877 2.59 7.113 3.886 12.667 3.886 4.659 0 8.631-1.224 11.899-3.649 3.292-2.44 5.006-5.978 5.163-10.61H5.589c-.157 2.616-1.33 4.478-3.526 5.604-1.45.71-3.246 1.07-5.422 1.07-2.403 0-4.326-.46-5.75-1.415-1.443-.932-2.151-2.261-2.151-3.954 0-1.566.695-2.732 2.114-3.501.914-.508 2.83-1.114 5.787-1.8l7.656-1.81c3.366-.78 5.864-1.836 7.535-3.162 2.603-2.05 3.914-5.019 3.914-8.893 0-3.981-1.55-7.295-4.634-9.932-3.077-2.625-7.421-3.954-13.046-3.954-5.738 0-10.252 1.308-13.548 3.899-3.292 2.597-4.926 6.153-4.926 10.704zM29.442 392.451v-11.615h10.581c1.902 0 3.373.243 4.437.77 1.91.931 2.856 2.744 2.856 5.442 0 2.246-.92 3.806-2.767 4.659-1.046.483-2.504.723-4.369.744zm0 16.843v-9.643h10.606c1.889 0 3.428.376 4.615 1.099 1.185.707 1.773 2 1.773 3.821 0 2.043-.791 3.373-2.342 4.022-1.348.461-3.065.701-5.17.701zm23.683 2.923c1.329-1.873 2.009-4.086 2.009-6.664 0-2.67-.68-4.803-2.022-6.412-.756-.914-1.867-1.751-3.335-2.493 2.225-.812 3.908-2.089 5.05-3.849 1.116-1.754 1.689-3.88 1.689-6.385 0-2.566-.631-4.895-1.93-6.947a12.593 12.593 0 0 0-3.101-3.44c-1.382-1.053-3.022-1.8-4.93-2.185-1.886-.394-3.935-.594-6.156-.594H20.746v43.597h21.08c5.314-.064 9.083-1.628 11.299-4.628M71.69 409.293v-28.458h8.406c4.304 0 7.313 2.114 9.003 6.347.938 2.327 1.393 5.096 1.393 8.323 0 4.422-.689 7.837-2.095 10.21-1.385 2.369-4.148 3.578-8.301 3.578zm16.695 6.61c3.064-1.013 5.535-2.85 7.434-5.533 1.513-2.175 2.541-4.51 3.095-7.028.557-2.523.834-4.938.834-7.221 0-5.8-1.16-10.71-3.492-14.732-3.16-5.428-8.034-8.142-14.622-8.142h-18.79v43.597h18.79c2.705-.03 4.966-.348 6.75-.942M109.232 412.29c3.516 3.593 7.987 5.39 13.406 5.39 7.255 0 12.572-2.412 15.907-7.222 1.865-2.704 2.856-5.412 3-8.126h-9.104c-.594 2.086-1.342 3.668-2.25 4.733-1.615 1.898-4.03 2.843-7.215 2.843-3.24 0-5.794-1.339-7.668-4.022-1.883-2.674-2.812-6.452-2.812-11.348 0-4.87.985-8.544 2.96-10.981 1.979-2.43 4.496-3.643 7.545-3.643 3.129 0 5.504 1.043 7.132 3.129.914 1.13 1.659 2.822 2.265 5.065h9.046c-.77-4.754-2.766-8.622-5.976-11.607-3.215-2.975-7.307-4.464-12.326-4.464-6.2 0-11.098 2.015-14.63 6.037-3.56 4.037-5.339 9.578-5.339 16.627 0 7.597 2.022 13.474 6.059 17.588" style="fill:#fff;fill-opacity:1;fill-rule:nonzero;stroke:none;stroke-width:3.07692" transform="matrix(1.33333 0 0 -1.33333 47.572 602.254)"/><path d="M265.12 423.632c-1.476-1.446-3.292-2.667-5.415-3.661-2.289-1.043-4.818-1.813-7.584-2.311a67.626 67.626 0 0 0-7.939-.975c-.298 0-.467-.065-.486-.188-.03-.126.062-.31.252-.557l4.262-5.298c2.188 0 4.542.273 7.055.818a57.693 57.693 0 0 1 7.271 2.092c2.237.85 4.256 1.837 6.046 2.982 1.797 1.138 3.108 2.415 3.96 3.812.096.092.259.142.486.142.225 0 .351-.05.404-.142.938-1.397 2.255-2.652 3.926-3.77a30.868 30.868 0 0 1 5.55-2.95 42.759 42.759 0 0 1 7.502-2.203c2.612-.523 5.07-.781 7.348-.781l4.261 5.298c.151.194.222.372.222.532 0 .142-.136.213-.443.213a55.836 55.836 0 0 0-6.865.75c-2.39.388-4.655.994-6.8 1.785-2.585.945-4.803 2.21-6.637 3.772-1.85 1.563-2.97 3.548-3.354 5.936h20.29v6.714h-50.816v-6.714h20.228c-.354-2.099-1.256-3.85-2.723-5.296m-5.68-33.581c-2.259-2.6-3.394-5.579-3.394-8.96 0-4.077 1.64-7.573 4.957-10.49 3.317-2.907 7.301-4.356 11.99-4.356 4.668 0 8.665 1.449 11.976 4.357 3.298 2.916 4.96 6.412 4.96 10.489 0 3.381-1.145 6.36-3.397 8.96-2.265 2.584-5.114 4.35-8.55 5.298v4.099h27.845v6.71h-65.683v-6.71h27.843v-4.099c-3.433-.947-6.286-2.714-8.547-5.298m19.07-3.326c1.634-1.619 2.456-3.502 2.456-5.634 0-2.148-.822-4.019-2.455-5.643-1.644-1.606-3.48-2.425-5.517-2.425-2.003 0-3.831.819-5.49 2.425-1.67 1.624-2.504 3.495-2.504 5.643 0 2.132.834 4.015 2.504 5.634 1.659 1.612 3.487 2.418 5.49 2.418 2.037 0 3.873-.806 5.517-2.418M348.366 381.946h27.615v-6.71h-65.68v6.71h28.36v10.317c0 .837-.23 1.52-.704 2.037-.48.53-1.111.788-1.905.788h-1.04v3.661h13.354Zm-10.07 44.785c0 1.15-.308 1.99-.933 2.548-.625.541-1.31.824-2.062.824h-1.117v4.093h14.182v-9.034c0-3.634.726-6.754 2.194-9.366a20.56 20.56 0 0 1 5.794-6.527c2.332-1.692 4.969-2.935 7.907-3.729a33.765 33.765 0 0 1 8.96-1.194c.296 0 .44-.067.44-.19 0-.127-.073-.256-.224-.413l-4.988-5.821c-2.246 0-4.698.344-7.36 1.012a35.087 35.087 0 0 0-7.723 2.948 26.617 26.617 0 0 0-5.486 3.803c-1.665 1.492-2.994 3.166-3.997 5-.246.44-.468.683-.668.683-.184 0-.424-.243-.68-.683-1.098-1.985-2.569-3.751-4.434-5.29a31.102 31.102 0 0 0-6.08-3.962 38.105 38.105 0 0 0-7.249-2.539c-2.477-.594-4.754-.898-6.772-.898l-5.006 5.827c-.163.145-.216.283-.216.413 0 .11.133.181.45.181 2.861 0 5.744.412 8.643 1.23 2.883.82 5.504 2.05 7.83 3.7 2.536 1.735 4.61 4.018 6.194 6.83 1.6 2.81 2.4 6.252 2.4 10.33zM381.167 391.445c-.151.144-.203.27-.151.37.043.094.169.174.366.22a49.168 49.168 0 0 1 11.57 4.031c3.725 1.84 6.972 4.4 9.698 7.696 2.098 2.486 3.757 5.458 5.006 8.941 1.246 3.483 1.87 7.57 1.87 12.246v.222h-24.418v6.714h33.197c.308 0 .517-.052.61-.136.1-.11.147-.316.147-.612v-5.372c0-5.717-.895-10.77-2.68-15.151-1.79-4.366-4.126-8.123-7.025-11.265-3.372-3.63-7.224-6.458-11.557-8.507-4.32-2.043-8.501-3.391-12.535-4.022zm60.427-23.736h-8.889v61.72c0 .736-.234 1.459-.745 2.16-.492.696-1.233 1.05-2.23 1.05h-1.502v3.726h13.366zM474.947 395.101h-12.459v-4.113h.819c.75 0 1.357-.213 1.827-.628.474-.43.72-1.03.72-1.834v-14.77c0-2.002.511-3.504 1.557-4.52 1.04-1.027 2.493-1.525 4.333-1.525h33.36c1.849 0 3.286.498 4.32 1.526 1.058 1.015 1.587 2.517 1.587 4.52v22.083h-12.477v-4.025h.825c.738 0 1.363-.218 1.818-.637.483-.427.717-1.033.717-1.824v-1.348h-26.947zm26.947-19.707c0-.453-.089-.763-.258-.939-.176-.169-.486-.252-.932-.252h-24.567c-.433 0-.75.05-.913.145-.182.101-.277.424-.277.966v6.049h26.947zm-12.837 46.794c-1.033 3.68-3.221 6.707-6.52 9.113-3.31 2.379-7.104 3.579-11.393 3.579-5.12 0-9.484-1.683-13.096-5.046-3.606-3.357-5.415-7.428-5.415-12.197 0-4.779 1.809-8.843 5.415-12.216 3.612-3.356 7.976-5.036 13.096-5.036 4.621 0 8.664 1.369 12.101 4.113 3.428 2.742 5.483 6.145 6.179 10.222h12.633V398.9h8.954v37.462h-13.449v-3.726h1.508c.99 0 1.729-.35 2.227-1.05.508-.698.76-1.42.76-2.16v-7.24zm-24.55 2.981c1.827 2.09 4.052 3.139 6.637 3.139 2.587 0 4.818-1.05 6.683-3.139 1.867-2.09 2.8-4.61 2.8-7.532 0-2.948-.933-5.45-2.8-7.542-1.865-2.083-4.096-3.141-6.683-3.141-2.585 0-4.81 1.058-6.637 3.141-1.837 2.093-2.763 4.594-2.763 7.542 0 2.923.926 5.443 2.763 7.532M588.516 390.594v6.936h-65.68v-6.936h17.542v-22.84h8.963v22.84h12.692v-22.84h8.936v22.84zm-46.461 41.382c-3.803-3.41-5.702-7.526-5.702-12.345 0-4.834 1.899-8.941 5.702-12.314 3.812-3.387 8.348-5.083 13.63-5.083 5.32 0 9.868 1.696 13.656 5.083 3.779 3.373 5.67 7.48 5.67 12.314 0 4.819-1.891 8.936-5.67 12.345-3.788 3.406-8.335 5.114-13.655 5.114-5.283 0-9.819-1.708-13.631-5.114m20.825-4.812c2.018-2.087 3.021-4.607 3.021-7.533 0-2.947-1.003-5.455-3.021-7.547-2.013-2.093-4.413-3.127-7.194-3.127-2.788 0-5.191 1.034-7.219 3.127-2.006 2.092-3.015 4.6-3.015 7.547 0 2.926 1.01 5.446 3.015 7.533 2.028 2.083 4.431 3.129 7.219 3.129 2.781 0 5.181-1.046 7.194-3.13M630.83 408.626h20.914v6.643h-39.797c-.39 0-.72.12-1.003.372-.277.25-.428.619-.428 1.12v2.01h40.397v6.646h-40.397v3.434h40.837v6.79h-54.557v-3.726h1.492c.997 0 1.748-.301 2.24-.901.505-.591.748-1.311.748-2.163v-11.714c0-3.185.63-5.397 1.868-6.652 1.243-1.231 3.36-1.859 6.35-1.859h11.336v-3.437h-27.843v-6.41h65.692v6.41H630.83zm-17.206-16.421c-3.4-2.988-5.108-6.567-5.108-10.745 0-4.175 1.708-7.742 5.108-10.714 3.41-2.954 7.477-4.437 12.206-4.437 4.73 0 8.79 1.483 12.206 4.437 3.4 2.972 5.114 6.539 5.114 10.714 0 4.178-1.714 7.757-5.114 10.745-3.415 2.981-7.477 4.483-12.206 4.483-4.73 0-8.797-1.502-12.206-4.483m17.914-4.733c1.624-1.667 2.424-3.667 2.424-6.012 0-2.335-.8-4.342-2.424-6.012-1.616-1.668-3.52-2.49-5.708-2.49-2.138 0-4.028.822-5.668 2.49-1.64 1.67-2.47 3.677-2.47 6.012 0 2.345.83 4.345 2.47 6.012 1.64 1.665 3.53 2.499 5.668 2.499 2.188 0 4.092-.834 5.708-2.499M689.586 391.514v-15.225c0-.35.095-.618.295-.821.197-.197.474-.299.822-.299h34.028v-6.714h-38.277c-2.059 0-3.576.486-4.56 1.456-1.01.966-1.49 2.495-1.49 4.587v10.225c0 .843-.258 1.566-.753 2.166-.493.594-1.243.892-2.234.892h-1.49v3.733zm13.36 26.941v11.117c0 .853-.218 1.566-.65 2.166-.402.597-1.196.899-2.338.899h-.821v3.726H711.3v-49.252h-8.354v24.627h-11.123v6.717zm21.04-31.344h-8.366v42.461c0 .853-.216 1.566-.631 2.166-.421.597-1.203.899-2.35.899h-.816v3.726h12.163zm-39.49 33.055c0-2.686.342-5.055 1.022-7.123.656-2.058 1.52-3.892 2.579-5.486 1.344-1.985 2.914-3.588 4.735-4.779 1.816-1.19 3.677-2.04 5.557-2.535.237-.05.379-.135.379-.265a.457.457 0 0 0-.16-.332l-4.551-4.778c-.896.101-2.114.529-3.69 1.267-1.575.745-3.153 1.745-4.735 2.994a20.21 20.21 0 0 0-2.994 2.794 14.209 14.209 0 0 0-2.169 3.246c-.095.252-.277.372-.51.372-.265 0-.435-.12-.536-.372-.486-1.2-1.188-2.301-2.08-3.332a22.662 22.662 0 0 0-2.985-2.782c-1.544-1.252-3.095-2.215-4.67-2.92-1.557-.692-2.825-1.095-3.767-1.19l-4.557 4.784c-.107.096-.132.203-.107.332.024.127.138.213.33.259 1.894.455 3.725 1.2 5.488 2.277 1.779 1.061 3.33 2.526 4.662 4.357 1.148 1.6 2.061 3.492 2.735 5.677.662 2.184.997 4.726.997 7.615v6.05c0 .744-.132 1.44-.415 2.085-.265.644-.923.97-1.97.97h-2.086v4.249h13.499zM748.739 406.817v-10.384c0-.493.138-.868.403-1.114a1.455 1.455 0 0 1 1.009-.373h27.621v-6.71h-29.11c-2.994 0-5.237.738-6.714 2.23-1.49 1.49-2.25 3.825-2.25 7.016v27.237c0 .855-.233 1.575-.744 2.169-.498.594-1.237.89-2.24.89h-1.48v3.735h39.545v-6.714h-26.04v-11.345h20.083v-6.637zm37.692 6.637v15.975c0 .736-.246 1.459-.75 2.16-.493.696-1.244 1.05-2.244 1.05h-1.49v3.726h13.349v-68.656h-8.865v39.031h-13.142v6.714zM248.659 339.458c.117.179.234.453.35.825.136.437.29.658.46.658.242 0 .39-.304.445-.916l.471-5.72.055-.687c0-.378-.12-.563-.366-.563-.178 0-.31.065-.39.197-.08.133-.234.563-.459 1.286a8.893 8.893 0 0 1-1.914 3.351c-.892.994-1.787 1.49-2.686 1.49-.87 0-1.597-.388-2.178-1.164-.579-.772-.868-1.747-.868-2.92 0-.932.268-1.778.806-2.529.542-.754 1.582-1.464 3.117-2.132 2.41-1.062 4.043-2.37 4.895-3.93.847-1.553 1.271-3.286 1.271-5.19 0-1.948-.31-3.582-.932-4.905-.619-1.317-1.363-2.357-2.225-3.114-.864-.76-1.969-1.141-3.317-1.141-.766 0-1.557.172-2.375.51-.819.345-1.665.856-2.535 1.536-.182-.32-.336-.738-.462-1.252-.142-.57-.323-.853-.538-.853-.225 0-.36.376-.404 1.123l-.39 7.576c-.022.332-.028.544-.028.624 0 .407.132.607.403.607.197 0 .388-.348.566-1.04.551-2.09 1.296-3.828 2.24-5.219.936-1.39 2.028-2.086 3.277-2.086 1.062 0 1.917.486 2.573 1.458.649.976.975 2.08.975 3.317 0 1.24-.299 2.283-.902 3.133-.603.846-1.686 1.661-3.252 2.44-1.517.766-2.65 1.495-3.39 2.194-.745.692-1.336 1.649-1.782 2.864a10.695 10.695 0 0 0-.668 3.705c0 2.184.545 4.043 1.637 5.572 1.095 1.53 2.582 2.295 4.462 2.295 1.015 0 2.369-.464 4.058-1.4M258.17 327.941c.646 1.09 1.3 1.896 1.962 2.43.665.54 1.336.807 2.019.807.486 0 1-.154 1.538-.461.542-.305 1.133-1.022 1.773-2.148.646.874 1.31 1.532 1.994 1.972.683.437 1.381.659 2.101.659 1.23 0 2.135-.517 2.71-1.548.567-1.043.847-2.59.847-4.637l-.068-7.062c0-1.993.065-3.138.188-3.436.126-.299.465-.511 1.018-.637.311-.087.468-.271.468-.563 0-.434-.184-.647-.55-.647-.065 0-.154.006-.271.022-.754.11-1.576.166-2.462.166-.486 0-1.07-.04-1.75-.117-.422-.049-.665-.07-.727-.07-.45 0-.674.193-.674.584 0 .348.148.548.446.603.511.11.828.252.945.419.114.166.206.809.268 1.932.064 1.123.095 3.012.095 5.67 0 2.438-.04 4.111-.123 5.016-.08.905-.264 1.6-.55 2.08-.29.48-.65.72-1.08.72-.388 0-.782-.228-1.182-.677-.4-.452-.81-1.138-1.234-2.055-.277-2.16-.418-5.256-.418-9.299 0-1.714.083-2.75.243-3.117.163-.363.532-.59 1.107-.689.342-.055.511-.234.511-.541 0-.434-.215-.647-.646-.647-.102 0-.446.031-1.04.09-.819.08-1.397.117-1.739.117-.584 0-1.276-.053-2.076-.16a3.539 3.539 0 0 0-.474-.047c-.397 0-.594.203-.594.603 0 .364.194.564.581.607.511.055.837.498.97 1.326.135.83.203 3.729.203 8.701 0 2.046-.117 3.459-.351 4.231-.234.772-.615 1.16-1.148 1.16-.914 0-1.64-.75-2.169-2.252-.532-1.502-.797-4.41-.797-8.714 0-2.019.083-3.259.25-3.71.166-.456.48-.702.938-.742.341-.028.51-.21.51-.542 0-.446-.181-.668-.55-.668a1.65 1.65 0 0 0-.379.071c-.467.093-1.267.136-2.4.136-1.009 0-1.784-.053-2.335-.16a3.776 3.776 0 0 0-.486-.047c-.296 0-.443.203-.443.603 0 .376.166.579.498.607.539.04.874.187 1 .437.123.252.219.953.28 2.101.065 1.148.096 3.31.096 6.486 0 2.48-.018 4.034-.059 4.662-.043.624-.19 1.104-.446 1.44-.255.335-.61.51-1.058.523-.37.016-.554.2-.554.563 0 .36.184.557.554.585.476.04 1.181.135 2.116.28.936.144 1.745.221 2.428.221.108-.406.163-1.074.163-2.006 0-.237.004-.646.012-1.23M282.801 323.205c-.215-.403-.732-.941-1.55-1.609-.748-.615-1.247-1.157-1.5-1.634-.251-.486-.378-1.19-.378-2.11 0-.979.136-1.72.4-2.228.265-.51.591-.763.976-.763.523 0 1.009.372 1.458 1.117.45.747.674 2.061.674 3.944 0 .585-.025 1.68-.08 3.283m-.175-8.366c-.557-.821-1.12-1.437-1.686-1.846-.567-.41-1.139-.618-1.714-.618-.917 0-1.625.43-2.123 1.286-.502.858-.751 1.901-.751 3.126 0 .948.15 1.794.452 2.538.299.745.674 1.327 1.117 1.739.446.41 1.179.901 2.2 1.47.862.478 1.44.85 1.73 1.12.292.271.538.668.735 1.188.197.523.295 1.2.295 2.028 0 .914-.148 1.646-.443 2.19-.295.549-.702.822-1.222.822-.449 0-.766-.172-.953-.52-.188-.357-.333-.935-.428-1.723-.21-1.578-.76-2.366-1.662-2.366-.369 0-.683.166-.944.499-.262.332-.391.815-.391 1.44 0 1.335.47 2.335 1.412 2.993.939.662 2.059.994 3.363.994 1.123 0 2.04-.264 2.745-.794.708-.529 1.157-1.141 1.357-1.836.197-.696.295-1.782.295-3.253l-.024-4.947c0-2.604.055-4.271.166-5.01.114-.735.354-1.104.723-1.104.052 0 .126.01.215.021.182.025.302.04.363.04.37 0 .554-.157.554-.48a.722.722 0 0 0-.227-.532c-.154-.145-.616-.33-1.385-.55-.77-.225-1.465-.336-2.083-.336-.622 0-1.046.184-1.274.55-.23.364-.366.988-.412 1.871M294.13 341.379l.04-17.505c.01-5.594.106-8.646.284-9.16.182-.514.542-.794 1.08-.837.63-.04.945-.237.945-.581 0-.434-.194-.647-.582-.647-.108 0-.265.012-.47.04-.875.114-1.718.167-2.536.167-1.332 0-2.317-.053-2.954-.16a2.95 2.95 0 0 0-.486-.047c-.406 0-.61.188-.61.564 0 .36.231.563.69.603.495.043.855.184 1.086.418.23.237.37.566.419.99.049.429.073 1.42.073 2.98l-.055 8.205.043 6.514c0 2.702-.086 4.342-.25 4.92-.169.576-.66.97-1.476 1.179-.496.114-.745.335-.745.667 0 .21.056.351.17.428.113.077.39.145.83.197 1.843.237 3.345.594 4.505 1.065M302.481 341.379l.04-17.505c.01-5.594.105-8.646.283-9.16.182-.514.542-.794 1.08-.837.63-.04.945-.237.945-.581 0-.434-.194-.647-.582-.647a3.71 3.71 0 0 0-.47.04c-.874.114-1.717.167-2.536.167-1.332 0-2.317-.053-2.954-.16a2.95 2.95 0 0 0-.486-.047c-.406 0-.61.188-.61.564 0 .36.232.563.69.603.495.043.855.184 1.086.418.231.237.37.566.419.99.049.429.073 1.42.073 2.98l-.055 8.205.043 6.514c0 2.702-.086 4.342-.25 4.92-.168.576-.66.97-1.476 1.179-.495.114-.745.335-.745.667 0 .21.056.351.17.428.113.077.39.145.83.197 1.843.237 3.345.594 4.505 1.065M320.895 331.823c.87 1.333 1.307 2.72 1.307 4.163 0 1.108-.206 1.954-.621 2.539-.413.581-.868.874-1.36.874-.425 0-.794-.25-1.108-.751-.314-.499-.47-1.135-.47-1.914 0-1.455.75-3.092 2.252-4.91m-1.822-4.358c-1.314-1.652-1.97-3.458-1.97-5.418 0-1.542.345-3.022 1.032-4.446.689-1.425 1.584-2.136 2.692-2.136 1.006 0 2.114.742 3.317 2.228-1.323 3.819-3.012 7.077-5.07 9.772m-.61 1c-1.446 2.28-2.17 4.425-2.17 6.425 0 1.588.385 2.963 1.16 4.132.773 1.17 1.727 1.751 2.862 1.751 1.04 0 1.883-.455 2.526-1.366.643-.91.966-1.93.966-3.055 0-1.727-.735-3.576-2.2-5.551 1.702-2.086 3.287-5.126 4.764-9.13.763 1.917 1.144 3.76 1.144 5.524 0 1.473-.461 2.261-1.388 2.375-.378.055-.566.265-.566.625 0 .375.256.563.77.563l2.698-.083c.53 0 1.145.049 1.846.138.332.05.557.07.674.07.314 0 .474-.193.474-.584 0-.28-.182-.486-.542-.624-.59-.237-1.046-.545-1.36-.92a4.289 4.289 0 0 1-.729-1.222c-.172-.437-.575-1.68-1.215-3.726a31.4 31.4 0 0 0-1.296-3.428c1.142-3.621 2.2-5.437 3.173-5.437.393 0 .821.237 1.28.708.252.265.421.397.513.397.262 0 .391-.19.391-.582 0-.39-.48-1.003-1.437-1.837-.957-.836-1.892-1.252-2.8-1.252-.71 0-1.326.342-1.849 1.028-.52.683-1.04 1.69-1.563 3.018-2.123-2.698-4.095-4.046-5.923-4.046-1.403 0-2.554.625-3.452 1.874-.899 1.252-1.348 2.92-1.348 5.003 0 1.182.215 2.43.646 3.754.43 1.317 1.75 3.138 3.95 5.458M345.943 327.941c.646 1.09 1.301 1.896 1.963 2.43.664.54 1.335.807 2.018.807.486 0 1-.154 1.539-.461.541-.305 1.132-1.022 1.772-2.148.646.874 1.31 1.532 1.994 1.972.683.437 1.381.659 2.101.659 1.231 0 2.136-.517 2.711-1.548.566-1.043.846-2.59.846-4.637l-.068-7.062c0-1.993.065-3.138.188-3.436.126-.299.465-.511 1.019-.637.31-.087.467-.271.467-.563 0-.434-.184-.647-.55-.647-.065 0-.154.006-.271.022-.754.11-1.576.166-2.462.166-.486 0-1.07-.04-1.75-.117-.422-.049-.665-.07-.727-.07-.449 0-.673.193-.673.584 0 .348.147.548.446.603.51.11.827.252.944.419.114.166.206.809.268 1.932.065 1.123.095 3.012.095 5.67 0 2.438-.04 4.111-.123 5.016-.08.905-.264 1.6-.55 2.08-.29.48-.65.72-1.08.72-.388 0-.782-.228-1.182-.677-.4-.452-.81-1.138-1.234-2.055-.277-2.16-.418-5.256-.418-9.299 0-1.714.083-2.75.243-3.117.163-.363.532-.59 1.108-.689.341-.055.51-.234.51-.541 0-.434-.215-.647-.646-.647-.101 0-.446.031-1.04.09-.818.08-1.397.117-1.738.117-.585 0-1.277-.053-2.077-.16a3.539 3.539 0 0 0-.474-.047c-.397 0-.594.203-.594.603 0 .364.194.564.582.607.51.055.837.498.969 1.326.135.83.203 3.729.203 8.701 0 2.046-.117 3.459-.35 4.231-.235.772-.616 1.16-1.149 1.16-.913 0-1.64-.75-2.169-2.252-.532-1.502-.797-4.41-.797-8.714 0-2.019.083-3.259.25-3.71.166-.456.48-.702.938-.742.342-.028.51-.21.51-.542 0-.446-.18-.668-.55-.668a1.65 1.65 0 0 0-.378.071c-.468.093-1.268.136-2.4.136-1.01 0-1.785-.053-2.336-.16a3.776 3.776 0 0 0-.486-.047c-.295 0-.443.203-.443.603 0 .376.166.579.498.607.539.04.874.187 1 .437.123.252.219.953.28 2.101.065 1.148.096 3.31.096 6.486 0 2.48-.018 4.034-.059 4.662-.043.624-.19 1.104-.446 1.44-.255.335-.609.51-1.058.523-.37.016-.554.2-.554.563 0 .36.185.557.554.585.477.04 1.181.135 2.117.28.935.144 1.744.221 2.427.221.108-.406.163-1.074.163-2.006 0-.237.004-.646.012-1.23M367.836 323.894c1.332-.028 2.101-.043 2.308-.043 1.015 0 1.636.11 1.867.338.231.222.345.671.345 1.354 0 1.139-.212 2.148-.634 3.028-.425.874-.93 1.31-1.514 1.31-1.381 0-2.175-1.993-2.372-5.987m-.08-1.523c-.01-.403-.016-.696-.016-.874 0-1.979.314-3.65.938-5.019.625-1.369 1.468-2.055 2.53-2.055 1.089 0 2.156.73 3.212 2.19.212.293.366.438.458.438.234 0 .348-.194.348-.585 0-.308-.268-.852-.806-1.646-.542-.794-1.2-1.39-1.985-1.794a5.198 5.198 0 0 0-2.427-.606c-1.834 0-3.271.865-4.311 2.597-1.037 1.732-1.557 3.772-1.557 6.123 0 2.822.597 5.194 1.788 7.105 1.19 1.913 2.676 2.87 4.458 2.87 1.674 0 2.948-.87 3.825-2.609.873-1.738 1.313-3.394 1.313-4.966 0-.498-.086-.8-.255-.895-.172-.099-.726-.148-1.661-.148zM381.055 321.86c0-2.653.228-4.595.683-5.825.453-1.228 1.031-1.843 1.733-1.843.673 0 1.249.587 1.732 1.76.48 1.175.723 3.295.723 6.366 0 2.501-.2 4.375-.61 5.627-.402 1.25-1.015 1.874-1.833 1.874-.81 0-1.415-.661-1.822-1.99-.403-1.324-.606-3.317-.606-5.97m4.899 7.336c0 4.018-.016 6.701-.043 8.043-.025 1.344-.096 2.126-.216 2.36-.113.227-.437.409-.957.55-.35.084-.529.277-.529.585 0 .237.065.388.185.446.123.065.51.099 1.169.099h3.557l-.025-14.819-.064-9.2c0-1.418.077-2.317.234-2.692.157-.375.516-.619 1.086-.73.332-.055.498-.249.498-.584 0-.36-.175-.545-.526-.545h-4.37v2.862c-.387-1.074-.86-1.87-1.418-2.4-.557-.53-1.203-.794-1.941-.794-1.376 0-2.585.828-3.622 2.483-1.04 1.653-1.56 3.785-1.56 6.397 0 2.862.594 5.212 1.782 7.056 1.187 1.84 2.51 2.76 3.966 2.76.548 0 1.055-.157 1.52-.468.461-.314.886-.785 1.274-1.41M397.08 338.25c0-.82-.19-1.525-.575-2.116-.382-.594-.837-.89-1.366-.89-.542 0-1 .296-1.376.89-.378.59-.569 1.295-.569 2.117 0 .834.19 1.544.57 2.126.375.588.833.88 1.375.88.529 0 .984-.292 1.366-.88.384-.582.575-1.292.575-2.126m.191-7.053c.034-1.947.052-5.418.052-10.412l-.043-4.486c0-.905.102-1.51.293-1.815.193-.305.51-.508.95-.607.505-.095.757-.317.757-.667 0-.376-.2-.56-.597-.56-.187 0-.513.021-.981.058-.99.098-1.97.148-2.942.148-.477 0-.96-.04-1.458-.117a3.518 3.518 0 0 0-.606-.09c-.397 0-.591.185-.591.56 0 .36.258.579.781.647.69.098 1.077.458 1.16 1.077.08.618.12 1.873.12 3.766 0 2.446-.024 4.698-.073 6.75-.05 2.05-.142 3.225-.277 3.514-.133.293-.486.49-1.053.585-.44.068-.658.27-.658.606 0 .335.222.526.674.585l.28.04zM404.986 330.78c.046-1.433.064-3.387.064-5.861 0-3.757.025-6.16.071-7.212.046-1.05.222-1.84.532-2.37.308-.526.665-.79 1.062-.79.465 0 .938.274 1.418.812.483.545.837 1.255 1.068 2.132.228.874.342 2.308.342 4.296l.027 4.612c0 1.225-.04 2.028-.126 2.418-.086.391-.375.6-.87.625-.542.043-.81.259-.81.65 0 .236.065.384.197.449.13.061.474.092 1.03.092 1.25 0 2.416.05 3.496.148.034-.545.052-3.514.052-8.911 0-4.342.028-6.708.08-7.105.056-.397.348-.628.88-.698.311-.056.471-.259.471-.606 0-.404-.181-.604-.541-.604-.071 0-.182.006-.336.022-.252.025-.55.04-.889.04-1.197 0-1.858-.01-1.985-.022a4.569 4.569 0 0 0-.366-.018c-.169 0-.277.043-.317.136-.037.09-.058.357-.058.8 0 .726.03 1.455.092 2.194-.618-1.17-1.274-2.046-1.96-2.628-.689-.588-1.409-.877-2.166-.877-2.295 0-3.44 1.988-3.44 5.966v6.45c0 2.221-.049 3.526-.157 3.91-.101.382-.375.622-.812.72-.397.083-.597.265-.597.542 0 .375.175.563.526.563 2.412 0 3.75.043 4.022.126M420.47 327.941c.649 1.09 1.304 1.896 1.966 2.43.661.54 1.332.807 2.015.807.486 0 1-.154 1.541-.461.539-.305 1.13-1.022 1.767-2.148.649.874 1.313 1.532 1.997 1.972.68.437 1.384.659 2.101.659 1.234 0 2.135-.517 2.708-1.548.569-1.043.849-2.59.849-4.637l-.065-7.062c0-1.993.059-3.138.185-3.436.126-.299.465-.511 1.018-.637.311-.087.468-.271.468-.563 0-.434-.184-.647-.55-.647-.062 0-.154.006-.271.022-.754.11-1.573.166-2.462.166-.486 0-1.068-.04-1.75-.117-.425-.049-.665-.07-.727-.07-.452 0-.674.193-.674.584 0 .348.148.548.446.603.514.11.825.252.942.419.117.166.21.809.27 1.932.065 1.123.093 3.012.093 5.67 0 2.438-.037 4.111-.12 5.016-.08.905-.264 1.6-.55 2.08-.29.48-.647.72-1.08.72-.388 0-.782-.228-1.182-.677-.4-.452-.81-1.138-1.234-2.055-.277-2.16-.418-5.256-.418-9.299 0-1.714.083-2.75.243-3.117.163-.363.529-.59 1.107-.689.342-.055.514-.234.514-.541 0-.434-.218-.647-.65-.647-.1 0-.445.031-1.04.09-.818.08-1.396.117-1.74.117-.582 0-1.278-.053-2.074-.16a3.539 3.539 0 0 0-.474-.047c-.397 0-.594.203-.594.603 0 .364.194.564.578.607.514.055.84.498.976 1.326.135.83.2 3.729.2 8.701 0 2.046-.117 3.459-.351 4.231-.234.772-.615 1.16-1.145 1.16-.92 0-1.643-.75-2.172-2.252-.532-1.502-.797-4.41-.797-8.714 0-2.019.083-3.259.25-3.71.166-.456.476-.702.938-.742.341-.028.514-.21.514-.542 0-.446-.188-.668-.554-.668-.071 0-.197.022-.379.071-.467.093-1.267.136-2.4.136-1.006 0-1.784-.053-2.335-.16a3.74 3.74 0 0 0-.483-.047c-.299 0-.446.203-.446.603 0 .376.166.579.498.607.539.04.874.187 1 .437.126.252.219.953.28 2.101.065 1.148.099 3.31.099 6.486 0 2.48-.022 4.034-.065 4.662-.04.624-.188 1.104-.443 1.44-.255.335-.612.51-1.059.523-.369.016-.553.2-.553.563 0 .36.184.557.553.585.474.04 1.182.135 2.117.28.936.144 1.745.221 2.428.221.11-.406.16-1.074.16-2.006 0-.237.006-.646.016-1.23M451.888 326.46c-.071-2.93-.108-5.373-.108-7.333 0-2.581.065-4.058.2-4.434.136-.375.563-.563 1.283-.563 1.296 0 2.265.533 2.908 1.603.643 1.068.963 2.542.963 4.416 0 1.877-.332 3.415-.997 4.615-.668 1.2-1.677 1.8-3.034 1.8-.298 0-.704-.034-1.215-.104m0 1.627c3.092 0 4.64 2.059 4.64 6.176 0 1.815-.274 3.169-.825 4.064-.547.893-1.187 1.342-1.914 1.342-.523 0-1.156-.197-1.901-.582a86.989 86.989 0 0 1-.108-4.387c0-1.29.037-3.493.108-6.613m3.708-.314c1.864-.612 3.258-1.547 4.181-2.806.926-1.261 1.39-2.849 1.39-4.766 0-1.603-.34-3.04-1.014-4.32-.68-1.28-1.514-2.138-2.499-2.575-.985-.44-2.415-.656-4.295-.656-.459 0-1.179.034-2.16.111-.806.062-1.44.096-1.902.096-.612 0-1.434-.062-2.47-.185a7.404 7.404 0 0 0-.89-.086c-.35 0-.523.203-.523.606 0 .305.135.486.415.541.57.111.982.259 1.237.45.256.184.462.501.622.944.157.446.234 1.17.234 2.17l.107 9.738c0 3.03-.024 5.452-.064 7.265-.046 1.815-.126 2.987-.24 3.51-.111.53-.268.899-.471 1.108-.2.206-.505.332-.91.375-.36.028-.592.09-.693.185-.108.102-.157.259-.157.483 0 .29.105.474.317.542.212.07.806.104 1.784.104 1.8 0 3.484.099 5.047.293.926.11 1.667.166 2.227.166 1.656 0 2.979-.566 3.966-1.696.988-1.129 1.484-2.646 1.484-4.544 0-3.277-1.573-5.625-4.724-7.052M467.56 330.78c.047-1.433.065-3.387.065-5.861 0-3.757.025-6.16.071-7.212.046-1.05.222-1.84.532-2.37.308-.526.665-.79 1.062-.79.465 0 .938.274 1.418.812.484.545.837 1.255 1.068 2.132.228.874.342 2.308.342 4.296l.027 4.612c0 1.225-.04 2.028-.126 2.418-.086.391-.375.6-.87.625-.542.043-.81.259-.81.65 0 .236.065.384.197.449.13.061.474.092 1.03.092 1.25 0 2.416.05 3.496.148.034-.545.052-3.514.052-8.911 0-4.342.028-6.708.08-7.105.056-.397.348-.628.88-.698.311-.056.471-.259.471-.606 0-.404-.181-.604-.541-.604-.071 0-.182.006-.336.022-.252.025-.55.04-.889.04-1.197 0-1.858-.01-1.985-.022a4.569 4.569 0 0 0-.366-.018c-.169 0-.277.043-.317.136-.037.09-.058.357-.058.8 0 .726.03 1.455.092 2.194-.618-1.17-1.273-2.046-1.96-2.628-.689-.588-1.409-.877-2.166-.877-2.295 0-3.44 1.988-3.44 5.966v6.45c0 2.221-.049 3.526-.157 3.91-.101.382-.375.622-.812.72-.397.083-.597.265-.597.542 0 .375.175.563.526.563 2.412 0 3.75.043 4.022.126M487.741 318.677c0-1-.17-1.975-.505-2.92-.335-.948-.843-1.73-1.523-2.348a3.437 3.437 0 0 0-2.384-.929c-1.133 0-2.09.363-2.871 1.086-.345.305-.563.459-.662.459-.117 0-.206-.117-.27-.348-.145-.548-.314-.821-.511-.821-.117 0-.2.07-.25.209-.052.138-.088.76-.122 1.861-.031 1.105-.046 2.41-.046 3.923 0 .582.104.874.323.874.215 0 .443-.434.686-1.295.867-3.132 2.046-4.692 3.535-4.692.523 0 .963.206 1.332.624.363.416.542 1.022.542 1.816 0 .664-.166 1.24-.505 1.72-.335.48-.981 1.083-1.935 1.806-1.437 1.095-2.425 2.058-2.954 2.88-.538.818-.81 1.91-.81 3.274 0 1.572.395 2.849 1.173 3.827.782.982 1.748 1.474 2.89 1.474.907 0 1.83-.418 2.762-1.255.127-.111.231-.163.311-.163.117 0 .206.154.271.455.09.39.219.588.39.588.118 0 .198-.065.244-.191.046-.123.108-.775.188-1.95.083-1.176.123-2.152.123-2.933 0-.542-.105-.812-.311-.812-.215 0-.437.387-.662 1.169-.763 2.588-1.864 3.88-3.304 3.88-.523 0-.945-.2-1.268-.603-.326-.406-.483-.837-.483-1.296 0-.584.203-1.117.618-1.606.413-.501 1.219-1.175 2.416-2.024 1.024-.723 1.735-1.283 2.135-1.68.4-.397.739-.967 1.019-1.708.28-.748.418-1.53.418-2.35M494.472 338.25c0-.82-.19-1.525-.576-2.116-.381-.594-.836-.89-1.366-.89-.541 0-1 .296-1.375.89-.379.59-.57 1.295-.57 2.117 0 .834.192 1.544.57 2.126.375.588.834.88 1.375.88.53 0 .985-.292 1.366-.88.385-.582.576-1.292.576-2.126m.19-7.053c.034-1.947.053-5.418.053-10.412l-.043-4.486c0-.905.102-1.51.292-1.815.194-.305.511-.508.951-.607.505-.095.757-.317.757-.667 0-.376-.2-.56-.597-.56-.187 0-.514.021-.981.058-.991.098-1.97.148-2.942.148-.477 0-.96-.04-1.458-.117a3.518 3.518 0 0 0-.607-.09c-.396 0-.59.185-.59.56 0 .36.258.579.781.647.69.098 1.077.458 1.16 1.077.08.618.12 1.873.12 3.766 0 2.446-.024 4.698-.074 6.75-.049 2.05-.141 3.225-.277 3.514-.132.293-.486.49-1.052.585-.44.068-.658.27-.658.606 0 .335.221.526.674.585l.28.04zM502.741 327.13c.612 1.335 1.274 2.335 1.988 3.006.717.665 1.483 1 2.304 1 .68 0 1.305-.27 1.874-.815.566-.542.951-1.191 1.151-1.942.203-.75.305-1.815.305-3.19l-.12-8.327c0-1.138.067-1.898.2-2.274.135-.375.421-.618.849-.729.36-.098.541-.32.541-.668 0-.36-.178-.541-.526-.541-.295 0-.947.055-1.957.166-.35.025-.634.04-.849.04-.206 0-.8-.068-1.781-.206h-.662c-.366 0-.554.184-.554.563 0 .304.17.508.502.603.304.098.547.258.729.48.178.221.298 1.317.357 3.283.058 1.963.086 3.914.086 5.85 0 2.144-.11 3.615-.33 4.405-.218.794-.64 1.194-1.26 1.194-.764 0-1.475-.867-2.127-2.6-.652-1.729-.975-4.39-.975-7.978 0-1.391.046-2.403.135-3.028.09-.625.197-1.018.33-1.175.129-.163.406-.299.83-.41.252-.07.376-.27.376-.606 0-.39-.185-.581-.554-.581-.176 0-.376.012-.591.037-.862.114-1.332.169-1.403.169-1.296 0-2.357-.068-3.182-.206a1.502 1.502 0 0 0-.326-.043c-.332 0-.498.203-.498.606 0 .348.147.548.446.603.455.083.77.28.93.585.16.307.28 1.264.36 2.874.073 1.609.113 3.526.113 5.756 0 2.84-.07 4.6-.206 5.274-.133.677-.456 1.17-.97 1.474-.369.225-.553.437-.553.646 0 .336.264.499.797.499 1.492 0 2.701.095 3.63.274.339-1.21.536-2.567.591-4.068M517.026 323.894a225.9 225.9 0 0 1 2.305-.043c1.015 0 1.64.11 1.867.338.231.222.348.671.348 1.354 0 1.139-.215 2.148-.634 3.028-.424.874-.93 1.31-1.514 1.31-1.384 0-2.178-1.993-2.372-5.987m-.08-1.523c-.01-.403-.016-.696-.016-.874 0-1.979.31-3.65.935-5.019.628-1.369 1.471-2.055 2.533-2.055 1.086 0 2.157.73 3.209 2.19.215.293.37.438.458.438.234 0 .351-.194.351-.585 0-.308-.27-.852-.81-1.646-.538-.794-1.2-1.39-1.984-1.794a5.188 5.188 0 0 0-2.427-.606c-1.834 0-3.268.865-4.308 2.597s-1.557 3.772-1.557 6.123c0 2.822.594 5.194 1.785 7.105 1.193 1.913 2.68 2.87 4.458 2.87 1.674 0 2.948-.87 3.825-2.609.877-1.738 1.314-3.394 1.314-4.966 0-.498-.083-.8-.256-.895-.172-.099-.723-.148-1.658-.148zM535.788 318.677c0-1-.17-1.975-.505-2.92-.335-.948-.843-1.73-1.523-2.348a3.437 3.437 0 0 0-2.384-.929c-1.133 0-2.09.363-2.871 1.086-.345.305-.563.459-.662.459-.117 0-.206-.117-.27-.348-.145-.548-.314-.821-.511-.821-.117 0-.2.07-.25.209-.052.138-.089.76-.123 1.861-.03 1.105-.046 2.41-.046 3.923 0 .582.105.874.323.874.216 0 .443-.434.686-1.295.868-3.132 2.047-4.692 3.536-4.692.523 0 .963.206 1.332.624.363.416.542 1.022.542 1.816 0 .664-.166 1.24-.505 1.72-.335.48-.981 1.083-1.935 1.806-1.437 1.095-2.425 2.058-2.954 2.88-.539.818-.81 1.91-.81 3.274 0 1.572.394 2.849 1.173 3.827.781.982 1.748 1.474 2.89 1.474.907 0 1.83-.418 2.762-1.255.126-.111.231-.163.311-.163.117 0 .206.154.27.455.09.39.22.588.392.588.117 0 .197-.065.243-.191.046-.123.107-.775.187-1.95.083-1.176.123-2.152.123-2.933 0-.542-.104-.812-.31-.812-.216 0-.437.387-.662 1.169-.763 2.588-1.865 3.88-3.305 3.88-.523 0-.944-.2-1.267-.603-.327-.406-.483-.837-.483-1.296 0-.584.203-1.117.618-1.606.412-.501 1.218-1.175 2.415-2.024 1.025-.723 1.736-1.283 2.136-1.68.4-.397.738-.967 1.018-1.708.28-.748.419-1.53.419-2.35M547.296 318.677c0-1-.169-1.975-.504-2.92-.336-.948-.843-1.73-1.523-2.348a3.437 3.437 0 0 0-2.385-.929c-1.132 0-2.09.363-2.87 1.086-.345.305-.564.459-.662.459-.117 0-.206-.117-.27-.348-.146-.548-.315-.821-.512-.821-.117 0-.2.07-.249.209-.052.138-.09.76-.123 1.861-.03 1.105-.046 2.41-.046 3.923 0 .582.104.874.323.874.215 0 .443-.434.686-1.295.868-3.132 2.046-4.692 3.535-4.692.524 0 .964.206 1.333.624.363.416.541 1.022.541 1.816 0 .664-.166 1.24-.504 1.72-.336.48-.982 1.083-1.936 1.806-1.437 1.095-2.424 2.058-2.954 2.88-.538.818-.809 1.91-.809 3.274 0 1.572.394 2.849 1.173 3.827.781.982 1.747 1.474 2.889 1.474.907 0 1.83-.418 2.763-1.255.126-.111.23-.163.31-.163.118 0 .207.154.271.455.09.39.219.588.391.588.117 0 .197-.065.243-.191.046-.123.108-.775.188-1.95.083-1.176.123-2.152.123-2.933 0-.542-.105-.812-.31-.812-.216 0-.438.387-.662 1.169-.764 2.588-1.865 3.88-3.305 3.88-.523 0-.945-.2-1.268-.603-.326-.406-.483-.837-.483-1.296 0-.584.203-1.117.619-1.606.412-.501 1.218-1.175 2.415-2.024 1.025-.723 1.735-1.283 2.135-1.68.4-.397.739-.967 1.019-1.708.28-.748.418-1.53.418-2.35M565.505 313.92c1.89 0 3.382 1.025 4.48 3.071 1.096 2.046 1.643 4.97 1.643 8.773 0 3.855-.59 7.03-1.772 9.529-1.184 2.501-2.861 3.75-5.04 3.75-.744 0-1.19-.064-1.338-.196-.151-.133-.243-.271-.277-.41-.037-.138-.09-1.698-.163-4.68l-.16-7.08a414.455 414.455 0 0 1-.043-6.47c0-1.936.052-3.271.163-4 .108-.73.344-1.296.714-1.693.369-.397.966-.594 1.793-.594m.917-1.523c-.393 0-2.015.043-4.867.127l-2.97-.022-1.738.043c-.415 0-.674.037-.775.114-.105.077-.157.246-.157.51 0 .404.193.607.578.607.742 0 1.277.193 1.622.584.341.391.557 1.105.649 2.151.09 1.043.17 3.123.25 6.243.073 3.12.113 5.985.113 8.603 0 3.69-.114 5.957-.348 6.797-.228.84-.794 1.299-1.704 1.366-.324.043-.484.253-.484.628s.142.563.431.563c.17 0 .748-.074 1.742-.228 1.095-.153 1.858-.23 2.292-.23l5.11.166c1.712 0 3.355-.505 4.936-1.514 1.585-1.01 2.84-2.659 3.773-4.948.932-2.289 1.397-4.883 1.397-7.778 0-2.145-.274-4.145-.819-6.003-.541-1.859-1.332-3.422-2.366-4.686-1.034-1.268-2.059-2.102-3.074-2.499-1.018-.397-2.215-.594-3.59-.594M583.23 338.25c0-.82-.19-1.525-.574-2.116-.382-.594-.837-.89-1.367-.89-.541 0-1 .296-1.375.89-.378.59-.57 1.295-.57 2.117 0 .834.192 1.544.57 2.126.375.588.834.88 1.375.88.53 0 .985-.292 1.367-.88.384-.582.575-1.292.575-2.126m.19-7.053c.035-1.947.053-5.418.053-10.412l-.043-4.486c0-.905.102-1.51.292-1.815.194-.305.511-.508.951-.607.505-.095.757-.317.757-.667 0-.376-.2-.56-.597-.56-.187 0-.514.021-.981.058-.991.098-1.97.148-2.942.148-.477 0-.96-.04-1.458-.117a3.518 3.518 0 0 0-.606-.09c-.397 0-.591.185-.591.56 0 .36.258.579.781.647.69.098 1.077.458 1.16 1.077.08.618.12 1.873.12 3.766 0 2.446-.024 4.698-.074 6.75-.049 2.05-.141 3.225-.276 3.514-.133.293-.487.49-1.053.585-.44.068-.658.27-.658.606 0 .335.221.526.674.585l.28.04zM596.356 318.677c0-1-.17-1.975-.505-2.92-.335-.948-.843-1.73-1.523-2.348a3.437 3.437 0 0 0-2.384-.929c-1.133 0-2.09.363-2.871 1.086-.345.305-.563.459-.662.459-.117 0-.206-.117-.27-.348-.145-.548-.314-.821-.511-.821-.117 0-.2.07-.25.209-.052.138-.089.76-.123 1.861-.03 1.105-.046 2.41-.046 3.923 0 .582.105.874.323.874.216 0 .443-.434.686-1.295.868-3.132 2.047-4.692 3.536-4.692.523 0 .963.206 1.332.624.363.416.542 1.022.542 1.816 0 .664-.166 1.24-.505 1.72-.335.48-.981 1.083-1.935 1.806-1.437 1.095-2.425 2.058-2.954 2.88-.539.818-.81 1.91-.81 3.274 0 1.572.394 2.849 1.173 3.827.781.982 1.748 1.474 2.89 1.474.907 0 1.83-.418 2.762-1.255.126-.111.231-.163.311-.163.117 0 .206.154.27.455.09.39.22.588.392.588.117 0 .197-.065.243-.191.046-.123.107-.775.187-1.95.083-1.176.123-2.152.123-2.933 0-.542-.104-.812-.31-.812-.216 0-.437.387-.662 1.169-.763 2.588-1.865 3.88-3.305 3.88-.523 0-.944-.2-1.267-.603-.327-.406-.483-.837-.483-1.296 0-.584.203-1.117.618-1.606.412-.501 1.218-1.175 2.415-2.024 1.025-.723 1.736-1.283 2.136-1.68.4-.397.738-.967 1.018-1.708.28-.748.419-1.53.419-2.35M603.6 330.844c.548.043 1.388.064 2.52.064.514 0 .936-.074 1.268-.212-.135-1.043-.255-1.597-.357-1.668-.101-.07-1.246-.203-3.43-.397l-.151-9.203c0-1.307.043-2.264.129-2.88.086-.612.28-1.126.588-1.541.304-.419.701-.628 1.184-.628.416 0 1.006.342 1.77 1.022.116.098.215.147.295.147.172 0 .255-.141.255-.415 0-.403-.363-.954-1.09-1.653-.731-.692-1.584-1.04-2.562-1.04-1.16 0-2.07.437-2.732 1.314-.662.874-.991 2.726-.991 5.551 0 3.117.037 6.222.107 9.326-.892 0-1.52.034-1.889.102-.37.07-.554.274-.554.609 0 .277.21.498.634.668.837.289 1.588.818 2.25 1.584.658.763 1.22 1.982 1.689 3.653.19.68.317 1.092.384 1.24.068.147.163.218.29.218.261 0 .393-.332.393-1zM613.432 326.983c.45 1.406.966 2.455 1.554 3.15.582.696 1.234 1.044 1.954 1.044.683 0 1.23-.305 1.64-.92.41-.613.612-1.376.612-2.296 0-.72-.147-1.335-.44-1.843-.289-.508-.646-.763-1.07-.763a.975.975 0 0 0-.782.375c-.206.253-.428.696-.662 1.336-.323.917-.606 1.378-.849 1.378-.335 0-.71-.52-1.132-1.563-.425-1.043-.634-3.061-.634-6.064 0-3.791.083-5.899.25-6.324.165-.421.528-.636 1.098-.636.495 0 .741-.207.741-.625 0-.39-.243-.582-.726-.582-.27 0-.662.037-1.175.111a10.17 10.17 0 0 1-1.323.096c-.89 0-1.773-.047-2.644-.148-.369-.037-.581-.058-.646-.058-.378 0-.569.215-.569.655 0 .381.222.588.662.615.433.028.735.182.904.468.173.286.256.908.256 1.868l.055 5.206c0 1.058-.028 2.372-.083 3.938-.052 1.57-.102 2.505-.145 2.803-.046.299-.16.567-.347.803-.182.234-.431.376-.748.419-.323.055-.53.12-.612.194-.086.08-.13.237-.13.474 0 .375.225.566.677.581.825.016 2.231.182 4.222.502zM624.953 338.25c0-.82-.191-1.525-.576-2.116-.381-.594-.837-.89-1.366-.89-.541 0-1 .296-1.375.89-.379.59-.57 1.295-.57 2.117 0 .834.191 1.544.57 2.126.375.588.834.88 1.375.88.53 0 .985-.292 1.366-.88.385-.582.576-1.292.576-2.126m.19-7.053c.034-1.947.053-5.418.053-10.412l-.043-4.486c0-.905.102-1.51.292-1.815.194-.305.511-.508.951-.607.505-.095.757-.317.757-.667 0-.376-.2-.56-.597-.56-.188 0-.514.021-.981.058-.991.098-1.97.148-2.942.148-.477 0-.96-.04-1.458-.117a3.518 3.518 0 0 0-.607-.09c-.397 0-.59.185-.59.56 0 .36.258.579.781.647.69.098 1.077.458 1.16 1.077.08.618.12 1.873.12 3.766 0 2.446-.024 4.698-.074 6.75-.049 2.05-.141 3.225-.277 3.514-.132.293-.486.49-1.052.585-.44.068-.658.27-.658.606 0 .335.221.526.674.585l.28.04zM635.542 329.528c-.557 0-1.062-.299-1.511-.896-.45-.597-.732-2.018-.85-4.261-.116-2.243-.175-3.991-.175-5.24 0-1.985.237-3.382.708-4.179.474-.797 1.03-1.197 1.68-1.197.818 0 1.486.726 1.997 2.188.514 1.458.77 3.31.77 5.563 0 2.25-.232 4.148-.69 5.699-.455 1.547-1.099 2.323-1.93 2.323m-2.347.169c.495.47 1.006.821 1.538 1.049.53.234 1.08.348 1.647.348 1.535 0 2.83-.871 3.883-2.616 1.055-1.744 1.581-3.914 1.581-6.514 0-1.75-.258-3.338-.775-4.763-.52-1.424-1.23-2.584-2.139-3.48-.907-.898-1.957-1.344-3.144-1.344-.81 0-1.514.169-2.117.51-.603.342-1.326.93-2.172 1.764-.117.11-.207.166-.268.166-.191 0-.332-.271-.419-.812-.172-.933-.36-1.397-.569-1.397-.16 0-.264.101-.301.313-.04.207-.062 1.133-.062 2.773l.108 15.135c0 5.182-.034 8.019-.108 8.508-.07.486-.415.775-1.025.877-.387.052-.578.255-.578.603 0 .375.172.563.526.563.194 0 .625-.034 1.28-.105.495-.04.923-.061 1.295-.061l1.348.061c.332 0 .499-.193.499-.584l.016-1c0-5.69-.016-9.022-.043-9.994M647.924 330.78c.047-1.433.065-3.387.065-5.861 0-3.757.025-6.16.07-7.212.047-1.05.222-1.84.533-2.37.308-.526.665-.79 1.062-.79.464 0 .938.274 1.418.812.483.545.837 1.255 1.068 2.132.228.874.341 2.308.341 4.296l.028 4.612c0 1.225-.04 2.028-.126 2.418-.086.391-.376.6-.871.625-.542.043-.81.259-.81.65 0 .236.065.384.198.449.129.061.474.092 1.03.092 1.25 0 2.416.05 3.496.148.034-.545.052-3.514.052-8.911 0-4.342.028-6.708.08-7.105.056-.397.348-.628.88-.698.311-.056.471-.259.471-.606 0-.404-.181-.604-.541-.604-.071 0-.182.006-.336.022-.252.025-.55.04-.889.04-1.197 0-1.859-.01-1.985-.022a4.569 4.569 0 0 0-.366-.018c-.169 0-.277.043-.317.136-.037.09-.058.357-.058.8 0 .726.03 1.455.092 2.194-.618-1.17-1.274-2.046-1.96-2.628-.689-.588-1.409-.877-2.166-.877-2.295 0-3.44 1.988-3.44 5.966v6.45c0 2.221-.05 3.526-.157 3.91-.101.382-.375.622-.812.72-.397.083-.597.265-.597.542 0 .375.175.563.526.563 2.412 0 3.75.043 4.022.126M663.844 330.844c.548.043 1.388.064 2.52.064.514 0 .935-.074 1.268-.212-.136-1.043-.256-1.597-.357-1.668-.102-.07-1.247-.203-3.431-.397l-.15-9.203c0-1.307.042-2.264.128-2.88.086-.612.28-1.126.588-1.541.305-.419.701-.628 1.185-.628.415 0 1.006.342 1.769 1.022.117.098.215.147.295.147.172 0 .256-.141.256-.415 0-.403-.364-.954-1.09-1.653-.732-.692-1.584-1.04-2.563-1.04-1.16 0-2.07.437-2.732 1.314-.662.874-.99 2.726-.99 5.551 0 3.117.036 6.222.107 9.326-.892 0-1.52.034-1.89.102-.368.07-.553.274-.553.609 0 .277.21.498.634.668.837.289 1.587.818 2.249 1.584.658.763 1.222 1.982 1.69 3.653.19.68.316 1.092.384 1.24.067.147.163.218.29.218.26 0 .393-.332.393-1zM673.973 338.25c0-.82-.19-1.525-.575-2.116-.382-.594-.837-.89-1.366-.89-.542 0-1 .296-1.376.89-.378.59-.569 1.295-.569 2.117 0 .834.19 1.544.57 2.126.375.588.833.88 1.375.88.529 0 .984-.292 1.366-.88.384-.582.575-1.292.575-2.126m.19-7.053c.035-1.947.053-5.418.053-10.412l-.043-4.486c0-.905.102-1.51.293-1.815.193-.305.51-.508.95-.607.505-.095.757-.317.757-.667 0-.376-.2-.56-.597-.56-.187 0-.513.021-.981.058-.99.098-1.97.148-2.942.148-.477 0-.96-.04-1.458-.117a3.518 3.518 0 0 0-.606-.09c-.397 0-.591.185-.591.56 0 .36.258.579.781.647.69.098 1.077.458 1.16 1.077.08.618.12 1.873.12 3.766 0 2.446-.024 4.698-.073 6.75-.05 2.05-.142 3.225-.277 3.514-.132.293-.486.49-1.053.585-.44.068-.658.27-.658.606 0 .335.221.526.674.585l.28.04zM686.87 320.859c0 2.283-.246 4.347-.736 6.194-.489 1.843-1.194 2.766-2.11 2.766-.81 0-1.437-.643-1.874-1.933-.443-1.289-.662-3.095-.662-5.421 0-2.536.25-4.616.748-6.237.498-1.622 1.184-2.434 2.055-2.434.856 0 1.499.65 1.93 1.945.433 1.295.649 3.003.649 5.12m3.723 1.43c0-2.56-.616-4.833-1.85-6.824-1.23-1.988-2.796-2.985-4.692-2.985-1.744 0-3.212.837-4.4 2.505-1.184 1.67-1.778 3.892-1.778 6.677 0 2.824.624 5.107 1.88 6.852 1.255 1.748 2.781 2.622 4.581 2.622 1.825 0 3.326-.825 4.499-2.474 1.175-1.65 1.76-3.773 1.76-6.373M697.2 327.13c.612 1.335 1.274 2.335 1.988 3.006.717.665 1.483 1 2.304 1 .68 0 1.305-.27 1.874-.815.566-.542.951-1.191 1.151-1.942.203-.75.305-1.815.305-3.19l-.12-8.327c0-1.138.068-1.898.2-2.274.135-.375.421-.618.849-.729.36-.098.541-.32.541-.668 0-.36-.178-.541-.526-.541-.295 0-.947.055-1.957.166-.35.025-.633.04-.849.04-.206 0-.8-.068-1.781-.206h-.662c-.366 0-.554.184-.554.563 0 .304.17.508.502.603.304.098.547.258.729.48.178.221.298 1.317.357 3.283.058 1.963.086 3.914.086 5.85 0 2.144-.11 3.615-.33 4.405-.218.794-.64 1.194-1.26 1.194-.764 0-1.475-.867-2.127-2.6-.652-1.729-.975-4.39-.975-7.978 0-1.391.046-2.403.135-3.028.09-.625.197-1.018.33-1.175.128-.163.405-.299.83-.41.252-.07.375-.27.375-.606 0-.39-.184-.581-.553-.581-.176 0-.376.012-.591.037-.862.114-1.332.169-1.403.169-1.296 0-2.357-.068-3.182-.206a1.502 1.502 0 0 0-.326-.043c-.332 0-.498.203-.498.606 0 .348.147.548.446.603.455.083.769.28.929.585.16.307.28 1.264.36 2.874.074 1.609.114 3.526.114 5.756 0 2.84-.071 4.6-.206 5.274-.133.677-.456 1.17-.97 1.474-.369.225-.553.437-.553.646 0 .336.264.499.796.499 1.493 0 2.702.095 3.631.274.339-1.21.536-2.567.591-4.068M729.358 338.5c.19.36.387.766.594 1.212.243.539.446.813.609.813.178 0 .295-.071.35-.21.053-.138.099-.572.136-1.292l.27-6.51.029-.838c0-.554-.145-.83-.434-.83-.19 0-.342.227-.462.686-.369 1.474-1.03 3.114-1.99 4.914-.96 1.803-2.167 2.701-3.628 2.701-1.077 0-1.985-.483-2.717-1.45-.735-.965-1.308-2.291-1.717-3.975-.412-1.683-.615-3.701-.615-6.052 0-4.018.572-7.212 1.713-9.588 1.142-2.369 2.564-3.553 4.265-3.553 1.846 0 3.535 1.723 5.074 5.175.19.412.37.625.538.625.287 0 .428-.225.428-.668 0-.92-.708-2.379-2.123-4.385-1.415-2-3.19-3-5.323-3-2.825 0-5.055 1.348-6.69 4.046-1.636 2.699-2.455 6.016-2.455 9.951 0 3.923.825 7.326 2.477 10.216 1.653 2.886 3.739 4.329 6.259 4.329 1.772 0 3.575-.772 5.412-2.317M737.236 323.894c1.332-.028 2.099-.043 2.305-.043 1.015 0 1.64.11 1.867.338.231.222.348.671.348 1.354 0 1.139-.215 2.148-.634 3.028-.424.874-.929 1.31-1.514 1.31-1.384 0-2.178-1.993-2.372-5.987m-.08-1.523c-.01-.403-.016-.696-.016-.874 0-1.979.311-3.65.936-5.019.627-1.369 1.47-2.055 2.532-2.055 1.086 0 2.157.73 3.21 2.19.214.293.368.438.458.438.233 0 .35-.194.35-.585 0-.308-.27-.852-.809-1.646-.538-.794-1.2-1.39-1.985-1.794a5.188 5.188 0 0 0-2.427-.606c-1.834 0-3.268.865-4.308 2.597s-1.557 3.772-1.557 6.123c0 2.822.594 5.194 1.785 7.105 1.194 1.913 2.68 2.87 4.458 2.87 1.674 0 2.948-.87 3.825-2.609.877-1.738 1.314-3.394 1.314-4.966 0-.498-.083-.8-.256-.895-.172-.099-.723-.148-1.658-.148zM751.143 327.13c.612 1.335 1.273 2.335 1.987 3.006.717.665 1.483 1 2.305 1 .68 0 1.305-.27 1.874-.815.566-.542.95-1.191 1.15-1.942.204-.75.305-1.815.305-3.19l-.12-8.327c0-1.138.068-1.898.2-2.274.136-.375.422-.618.85-.729.36-.098.541-.32.541-.668 0-.36-.178-.541-.526-.541-.296 0-.948.055-1.957.166-.35.025-.634.04-.85.04-.206 0-.8-.068-1.78-.206h-.662c-.367 0-.554.184-.554.563 0 .304.169.508.501.603.305.098.548.258.73.48.178.221.298 1.317.356 3.283.058 1.963.086 3.914.086 5.85 0 2.144-.11 3.615-.329 4.405-.218.794-.64 1.194-1.261 1.194-.763 0-1.474-.867-2.127-2.6-.652-1.729-.975-4.39-.975-7.978 0-1.391.046-2.403.136-3.028.089-.625.197-1.018.329-1.175.129-.163.406-.299.83-.41.253-.07.376-.27.376-.606 0-.39-.185-.581-.554-.581-.175 0-.375.012-.59.037-.862.114-1.333.169-1.404.169-1.295 0-2.357-.068-3.181-.206a1.502 1.502 0 0 0-.326-.043c-.333 0-.499.203-.499.606 0 .348.148.548.446.603.456.083.77.28.93.585.16.307.28 1.264.36 2.874.073 1.609.113 3.526.113 5.756 0 2.84-.07 4.6-.206 5.274-.132.677-.455 1.17-.97 1.474-.368.225-.553.437-.553.646 0 .336.265.499.797.499 1.492 0 2.701.095 3.63.274.34-1.21.536-2.567.591-4.068M766.698 330.844c.548.043 1.388.064 2.52.064.514 0 .936-.074 1.268-.212-.135-1.043-.255-1.597-.357-1.668-.102-.07-1.246-.203-3.43-.397l-.151-9.203c0-1.307.043-2.264.129-2.88.086-.612.28-1.126.587-1.541.305-.419.702-.628 1.185-.628.415 0 1.006.342 1.77 1.022.116.098.215.147.295.147.172 0 .255-.141.255-.415 0-.403-.363-.954-1.09-1.653-.732-.692-1.584-1.04-2.562-1.04-1.16 0-2.071.437-2.733 1.314-.661.874-.99 2.726-.99 5.551 0 3.117.037 6.222.107 9.326-.892 0-1.52.034-1.889.102-.369.07-.554.274-.554.609 0 .277.21.498.634.668.837.289 1.588.818 2.25 1.584.658.763 1.221 1.982 1.689 3.653.19.68.317 1.092.384 1.24.068.147.163.218.29.218.261 0 .393-.332.393-1zM776.073 323.894c1.333-.028 2.099-.043 2.305-.043 1.015 0 1.64.11 1.868.338.23.222.347.671.347 1.354 0 1.139-.215 2.148-.633 3.028-.425.874-.93 1.31-1.514 1.31-1.385 0-2.179-1.993-2.373-5.987m-.08-1.523c-.01-.403-.016-.696-.016-.874 0-1.979.311-3.65.936-5.019.627-1.369 1.47-2.055 2.532-2.055 1.086 0 2.157.73 3.21 2.19.215.293.369.438.458.438.234 0 .35-.194.35-.585 0-.308-.27-.852-.809-1.646-.538-.794-1.2-1.39-1.984-1.794a5.189 5.189 0 0 0-2.428-.606c-1.834 0-3.268.865-4.308 2.597s-1.557 3.772-1.557 6.123c0 2.822.594 5.194 1.785 7.105 1.194 1.913 2.68 2.87 4.458 2.87 1.674 0 2.948-.87 3.825-2.609.877-1.738 1.314-3.394 1.314-4.966 0-.498-.083-.8-.255-.895-.173-.099-.724-.148-1.659-.148zM789.763 326.983c.45 1.406.966 2.455 1.554 3.15.582.696 1.234 1.044 1.954 1.044.683 0 1.23-.305 1.64-.92.41-.613.612-1.376.612-2.296 0-.72-.147-1.335-.44-1.843-.289-.508-.646-.763-1.07-.763a.974.974 0 0 0-.782.375c-.206.253-.428.696-.662 1.336-.323.917-.606 1.378-.849 1.378-.335 0-.71-.52-1.132-1.563-.425-1.043-.634-3.061-.634-6.064 0-3.791.083-5.899.25-6.324.165-.421.528-.636 1.098-.636.495 0 .741-.207.741-.625 0-.39-.243-.582-.726-.582-.27 0-.661.037-1.175.111a10.17 10.17 0 0 1-1.323.096c-.89 0-1.773-.047-2.643-.148-.37-.037-.582-.058-.647-.058-.378 0-.569.215-.569.655 0 .381.222.588.662.615.434.028.735.182.904.468.173.286.256.908.256 1.868l.055 5.206c0 1.058-.028 2.372-.083 3.938-.052 1.57-.102 2.505-.145 2.803-.046.299-.16.567-.348.803-.181.234-.43.376-.747.419-.323.055-.53.12-.613.194-.086.08-.129.237-.129.474 0 .375.225.566.677.581.825.016 2.23.182 4.222.502z" style="fill:#231f20;fill-opacity:1;fill-rule:nonzero;stroke:none;stroke-width:3.07692" transform="matrix(1.33333 0 0 -1.33333 47.572 602.254)"/></svg>